<svg width="139" height="97" viewBox="0 0 139 97" fill="none" xmlns="http://www.w3.org/2000/svg">
<path fill-rule="evenodd" clip-rule="evenodd" d="M23.6535 0.252096H115.346C128.049 0.252096 138.346 10.55 138.346 23.2523V28.7473C138.346 41.4497 128.049 51.747 115.346 51.747H23.6535C10.9508 51.747 0.653578 41.4497 0.653578 28.7473V23.2523C0.653578 10.55 10.9508 0.252096 23.6535 0.252096Z" fill="white"/>
<path d="M111.063 15C113.246 15 115 16.7659 115 18.9181C115 21.0702 113.246 22.8545 111.044 22.8545C108.843 22.8545 107.07 21.107 107.07 18.9181C107.07 16.7291 108.861 15 111.044 15H111.063ZM111.026 15.791C109.365 15.791 108.022 17.2074 108.022 18.9365C108.022 20.6656 109.365 22.0635 111.044 22.0635C112.724 22.0635 114.086 20.6839 114.086 18.9365C114.086 17.189 112.724 15.791 111.044 15.791H111.026ZM110.354 21.199H109.421V16.8395C109.776 16.7843 110.168 16.7107 110.839 16.7107C111.604 16.7107 112.052 16.8395 112.351 17.0602C112.593 17.2441 112.742 17.5385 112.742 17.9983C112.742 18.5134 112.369 18.8813 111.903 19.01V19.0468C112.295 19.1204 112.537 19.4699 112.612 20.1137C112.705 20.7943 112.78 21.0518 112.854 21.199H111.884C111.772 21.0334 111.716 20.6656 111.623 20.0585C111.548 19.5803 111.268 19.3963 110.802 19.3963H110.373V21.1806L110.354 21.199ZM110.354 18.6973H110.802C111.343 18.6973 111.772 18.5318 111.772 18.0719C111.772 17.704 111.511 17.4281 110.877 17.4281C110.653 17.4281 110.485 17.4281 110.373 17.4281V18.6789L110.354 18.6973Z" fill="#1D1D1B"/>
<path d="M34.1167 20.2057C32.5681 19.4515 30.7956 19.0652 28.7618 19.0652H21V36.908H28.7805C30.7956 36.908 32.5867 36.5217 34.1354 35.7676C35.684 35.0134 36.8781 33.9649 37.7364 32.6037C38.5947 31.2609 39.0238 29.7157 39.0238 27.9866C39.0238 26.2575 38.5947 24.7124 37.7364 23.3696C36.8781 22.0268 35.684 20.9599 34.1354 20.2057H34.1167ZM35.9639 31.7575C35.2735 32.8612 34.3033 33.7074 33.0532 34.3328C31.8031 34.9582 30.3291 35.2709 28.6685 35.2709H23.0151V20.7023H28.6685C30.3478 20.7023 31.8031 21.015 33.0532 21.6405C34.3033 22.2659 35.2735 23.112 35.9639 24.2157C36.6542 25.3194 37.0087 26.5702 37.0087 28.005C37.0087 29.4398 36.6542 30.6906 35.9639 31.7943V31.7575Z" fill="#1D1D1B"/>
<path d="M61.9361 20.592C60.63 21.6957 59.977 23.2408 59.977 25.1906V36.908H61.9921V29.3294H71.1159V27.6923H61.9921V25.1906C61.9921 23.7007 62.4585 22.5602 63.3728 21.7692C64.287 20.9783 65.6864 20.592 67.5709 20.592C69.4553 20.592 71.0786 21.0151 72.31 21.8612L73.0377 20.3161C71.6383 19.3779 69.7725 18.9181 67.4776 18.9181C65.1826 18.9181 63.2422 19.4699 61.9361 20.592Z" fill="#1D1D1B"/>
<path d="M80.5196 29.7525H73.6161V30.5251H80.5196V29.7525Z" fill="#1D1D1B"/>
<path d="M82.1056 19.8746H86.9194V36.908H87.815V19.0836H82.1056V19.8746Z" fill="#1D1D1B"/>
<path d="M102.145 20.0769C101.044 19.3411 99.7562 18.9732 98.3009 18.9732C96.8456 18.9732 95.5768 19.3411 94.4573 20.0769C93.3378 20.8127 92.4609 21.8612 91.8452 23.2408C91.2295 24.602 90.9123 26.1839 90.9123 27.9866C90.9123 29.7893 91.2295 31.3712 91.8452 32.7324C92.4609 34.0936 93.3378 35.1421 94.4573 35.8963C95.5768 36.6321 96.8456 37 98.3009 37C99.7562 37 101.044 36.6321 102.145 35.8963C103.245 35.1605 104.122 34.112 104.738 32.7324C105.354 31.3712 105.671 29.7893 105.671 27.9866C105.671 26.1839 105.354 24.602 104.738 23.2408C104.122 21.8796 103.264 20.8311 102.145 20.0769ZM103.954 32.3645C103.413 33.597 102.667 34.5535 101.678 35.2157C100.689 35.8779 99.5697 36.209 98.3009 36.209C97.0322 36.209 95.9127 35.8779 94.9238 35.2157C93.9536 34.5535 93.1886 33.597 92.6661 32.3645C92.1251 31.1321 91.8638 29.6605 91.8638 27.9866C91.8638 26.3127 92.1251 24.8411 92.6661 23.6087C93.2072 22.3763 93.9536 21.4197 94.9238 20.7575C95.894 20.0953 97.0135 19.7642 98.3009 19.7642C99.5883 19.7642 100.708 20.0953 101.678 20.7575C102.648 21.4197 103.413 22.3763 103.954 23.6087C104.495 24.8411 104.757 26.3127 104.757 27.9866C104.757 29.6605 104.495 31.1321 103.954 32.3645Z" fill="#1D1D1B"/>
<path d="M50.9651 19.2124H47.5506C45.4236 19.2124 43.5764 19.9298 42.0651 21.3278C40.5538 22.7258 39.7888 24.4548 39.7888 26.4415V36.8528H41.7479V26.4415C41.7479 24.9331 42.3077 23.6823 43.4458 22.6154C44.6026 21.5485 45.9274 21.0151 47.532 21.0151H50.9464C52.5324 21.0151 53.8944 21.5485 55.0326 22.6154C56.1707 23.7007 56.7304 24.9515 56.7304 26.4599V36.8712H58.6896V26.4415C58.6896 24.4548 57.9246 22.7441 56.4133 21.3278C54.9019 19.9114 53.0548 19.2124 50.9277 19.2124H50.9651Z" fill="#1D1D1B"/>
<g clip-path="url(#clip0_1335_531)">
<path d="M13.3616 79.3054C13.2841 79.2294 13.1601 79.1839 13.0516 79.1839C12.9431 79.1839 12.8191 79.2294 12.7416 79.3206L11.2227 80.9002C11.0677 81.0673 11.0677 81.3255 11.2227 81.4926L15.6555 85.8365C15.733 85.9124 15.857 85.958 15.9655 85.958C16.0739 85.958 16.1824 85.9124 16.2754 85.8365L26.815 75.5082C26.8925 75.4323 26.939 75.326 26.939 75.2045C26.939 75.083 26.8925 74.9918 26.815 74.9007L25.296 73.4122C25.1255 73.2451 24.862 73.2451 24.6916 73.4122L16.0275 81.9026L13.3771 79.3054H13.3616ZM16.3219 82.7988L24.986 74.3083L25.9005 75.2045L15.9655 84.9404L12.1371 81.1888L13.0671 80.2167L15.702 82.7988C15.8725 82.9659 16.1359 82.9659 16.3064 82.7988H16.3219Z" fill="url(#paint0_linear_1335_531)"/>
<path d="M27.0629 76.8904C26.846 76.9815 26.7375 77.2245 26.8305 77.4372C27.3264 78.6067 27.5744 79.8522 27.5744 81.128C27.5744 86.444 23.1571 90.7728 17.7324 90.7728C12.3076 90.7728 7.89032 86.444 7.89032 81.128C7.89032 75.812 12.3076 71.4832 17.7324 71.4832C19.6698 71.4832 21.5607 72.03 23.1726 73.0932C23.3741 73.2147 23.6376 73.1692 23.7616 72.9717C23.8856 72.7743 23.8391 72.5161 23.6376 72.3946C21.8862 71.2554 19.8403 70.6479 17.7324 70.6479C11.8271 70.6479 7.03786 75.3563 7.03786 81.128C7.03786 86.8997 11.8426 91.6082 17.7324 91.6082C23.6221 91.6082 28.4269 86.8997 28.4269 81.128C28.4269 79.7459 28.1479 78.3941 27.6209 77.1182C27.5279 76.9056 27.2799 76.7993 27.0629 76.8904Z" fill="url(#paint1_linear_1335_531)"/>
<path d="M30.6123 79.4573C30.1008 79.0776 29.9613 78.3789 30.2868 77.8321C30.6278 77.2549 30.6743 76.5866 30.4263 75.9791C30.1628 75.3715 29.6513 74.9159 28.9849 74.764C28.3649 74.6121 27.9619 74.0197 28.0394 73.3818C28.1324 72.7287 27.9154 72.0756 27.4349 71.6199C26.9545 71.1491 26.3035 70.9365 25.637 71.0276C25.0015 71.1187 24.3971 70.7238 24.2266 70.1011C24.0561 69.4632 23.6066 68.9467 22.9866 68.6885C22.3667 68.4303 21.6692 68.4759 21.0957 68.8252C20.5377 69.1442 19.8248 69.0075 19.4373 68.5063C19.0343 67.9747 18.4143 67.6709 17.7324 67.6709C17.0504 67.6709 16.4304 67.9747 16.0275 68.5063C15.64 69.0075 14.927 69.1442 14.369 68.8252C13.7801 68.4911 13.0981 68.4455 12.4781 68.6885C11.8581 68.9467 11.3932 69.448 11.2382 70.1011C11.0832 70.7086 10.4787 71.1035 9.82773 71.0276C9.16126 70.9365 8.49479 71.1491 8.02982 71.6199C7.54934 72.0908 7.33235 72.7287 7.42534 73.3818C7.51834 74.0046 7.11536 74.5969 6.47989 74.764C5.82892 74.9311 5.30194 75.3715 5.03845 75.9791C4.77496 76.5866 4.82146 77.2701 5.17795 77.8321C5.50343 78.3789 5.36394 79.0776 4.85246 79.4573C4.30999 79.8522 4 80.4597 4 81.128C4 81.7963 4.30999 82.4039 4.85246 82.7988C5.36394 83.1785 5.50343 83.8772 5.17795 84.424C4.83696 85.0011 4.79046 85.6694 5.03845 86.277C5.30194 86.8845 5.81342 87.3402 6.47989 87.4921C7.09986 87.6439 7.50284 88.2363 7.42534 88.8742C7.33235 89.5273 7.54934 90.1805 8.02982 90.6361C8.51029 91.107 9.16126 91.3196 9.82773 91.2285C10.4632 91.1373 11.0677 91.5322 11.2382 92.155C11.4087 92.7929 11.8581 93.3093 12.4781 93.5675C13.0981 93.8257 13.7956 93.7802 14.369 93.4308C14.927 93.1119 15.64 93.2486 16.0275 93.7498C16.4304 94.2814 17.0504 94.5852 17.7324 94.5852C18.4143 94.5852 19.0343 94.2814 19.4373 93.7498C19.8248 93.2486 20.5377 93.1119 21.0957 93.4308C21.6847 93.765 22.3667 93.8105 22.9866 93.5675C23.6066 93.3093 24.0716 92.8081 24.2266 92.155C24.3816 91.5474 24.986 91.1525 25.637 91.2285C26.3035 91.3196 26.9699 91.107 27.4349 90.6361C27.9154 90.1653 28.1324 89.5273 28.0394 88.8742C27.9464 88.2515 28.3494 87.6591 28.9849 87.4921C29.6358 87.325 30.1628 86.8845 30.4263 86.277C30.6898 85.6694 30.6433 84.9859 30.2868 84.424C29.9613 83.8772 30.1008 83.1785 30.6123 82.7988C31.1548 82.4039 31.4647 81.7963 31.4647 81.128C31.4647 80.4597 31.1548 79.8522 30.6123 79.4573ZM30.1008 82.1153C29.2328 82.7532 29.0004 83.9227 29.5428 84.8492C29.7443 85.1834 29.7753 85.5935 29.6203 85.958C29.4653 86.3225 29.1553 86.5807 28.7679 86.6871C27.7139 86.9453 27.0474 87.9477 27.1869 88.9957C27.2489 89.3906 27.1094 89.7704 26.8305 90.0438C26.5515 90.3172 26.1485 90.4538 25.761 90.3931C24.6916 90.2412 23.6686 90.9095 23.4051 91.9423C23.3121 92.322 23.0331 92.6258 22.6611 92.7777C22.2892 92.9296 21.8707 92.8992 21.5297 92.7018C20.5997 92.155 19.4063 92.398 18.7398 93.2486C18.4918 93.5675 18.1354 93.7498 17.7324 93.7498C17.3294 93.7498 16.9574 93.5675 16.7249 93.2486C16.3064 92.7018 15.671 92.4132 15.02 92.4132C14.648 92.4132 14.276 92.5043 13.935 92.7018C13.5941 92.8992 13.1756 92.9296 12.8036 92.7777C12.4316 92.6258 12.1681 92.322 12.0596 91.9423C11.7961 90.9095 10.7732 90.2564 9.70374 90.3931C9.30076 90.4538 8.91328 90.3172 8.63429 90.0438C8.3553 89.7704 8.21581 89.3755 8.2778 88.9957C8.4328 87.9477 7.75083 86.9453 6.69688 86.6871C6.30939 86.5959 5.99941 86.3225 5.84442 85.958C5.68942 85.5935 5.72042 85.1834 5.92191 84.8492C6.47989 83.9379 6.2319 82.7684 5.36394 82.1153C5.03845 81.8723 4.85246 81.5229 4.85246 81.128C4.85246 80.7331 5.03845 80.3686 5.36394 80.1408C6.2319 79.5028 6.46439 78.3333 5.92191 77.4068C5.72042 77.0727 5.68942 76.6626 5.84442 76.298C5.99941 75.9335 6.30939 75.6753 6.69688 75.569C7.75083 75.3108 8.4173 74.3083 8.2778 73.2603C8.21581 72.8654 8.3553 72.4857 8.63429 72.2123C8.91328 71.9389 9.31626 71.8022 9.70374 71.863C10.7732 72.0148 11.7961 71.3465 12.0596 70.3137C12.1526 69.934 12.4316 69.6302 12.8036 69.4783C13.1756 69.3265 13.5941 69.3568 13.935 69.5543C14.865 70.1011 16.0584 69.8581 16.7249 69.0075C16.9729 68.6885 17.3294 68.5063 17.7324 68.5063C18.1354 68.5063 18.5073 68.6885 18.7398 69.0075C19.3908 69.8581 20.5842 70.0859 21.5297 69.5543C21.8707 69.3568 22.2892 69.3265 22.6611 69.4783C23.0331 69.6302 23.2966 69.934 23.4051 70.3137C23.6686 71.3465 24.6916 71.9997 25.761 71.863C26.164 71.8022 26.5515 71.9389 26.8305 72.2123C27.1094 72.4857 27.2489 72.8806 27.1869 73.2603C27.0319 74.3083 27.7139 75.3108 28.7679 75.569C29.1553 75.6601 29.4653 75.9335 29.6203 76.298C29.7753 76.6626 29.7443 77.0727 29.5428 77.4068C28.9849 78.3181 29.2328 79.4877 30.1008 80.1408C30.4263 80.3838 30.6123 80.7331 30.6123 81.128C30.6123 81.5229 30.4263 81.8875 30.1008 82.1153Z" fill="url(#paint2_linear_1335_531)"/>
<path d="M36.4865 71.7413V68.8251C36.4865 67.4125 37.5405 66.5012 39.4004 66.5012C41.2603 66.5012 42.3142 67.4125 42.3142 68.8251V69.3871H40.9658V68.8858C40.9658 68.1264 40.4543 67.6556 39.4159 67.6556C38.3774 67.6556 37.7884 68.1112 37.7884 68.8858V71.6654C37.7884 72.4248 38.3309 72.8956 39.4004 72.8956C40.4698 72.8956 40.9658 72.44 40.9658 71.6654V71.1641H42.3142V71.7413C42.3142 73.1538 41.2603 74.0652 39.4004 74.0652C37.5405 74.0652 36.4865 73.1538 36.4865 71.7413Z" fill="white"/>
<path d="M43.1202 71.8476V70.7692C43.1202 69.4023 43.9572 68.5517 45.4761 68.5517C46.995 68.5517 47.832 69.4023 47.832 70.7692V71.8476C47.832 73.2146 46.995 74.0652 45.4761 74.0652C43.9572 74.0652 43.1202 73.2146 43.1202 71.8476ZM46.592 71.8021V70.8148C46.592 70.0706 46.2511 69.6756 45.4916 69.6756C44.7321 69.6756 44.3756 70.0706 44.3756 70.8148V71.8021C44.3756 72.5463 44.7166 72.9412 45.4761 72.9412C46.2356 72.9412 46.592 72.5463 46.592 71.8021Z" fill="white"/>
<path d="M53.4737 70.8907V73.9285H52.2183V70.8756C52.2183 70.0706 51.7843 69.6908 51.1643 69.6908C50.5909 69.6908 50.0794 70.025 50.0484 70.7237V73.9285H48.8084V68.7036H49.6144L49.8469 69.1592C50.2499 68.7643 50.8233 68.5669 51.4588 68.5669C52.6833 68.5669 53.4737 69.2504 53.4737 70.9059V70.8907Z" fill="white"/>
<path d="M57.395 72.7893V73.9285H56.6356C55.3801 73.9285 54.7292 73.2905 54.7292 71.9691V69.8427H54.0162V68.7036H54.7292V67.1999H55.9846V68.6884H57.3176V69.8275H55.9846V71.7261C55.9846 72.4704 56.2946 72.8045 56.8991 72.8045H57.395V72.7893Z" fill="white"/>
<path d="M62.6338 68.7036V73.9285H61.7968L61.5799 73.5184C61.1924 73.8981 60.6344 74.0804 59.9834 74.0804C58.697 74.0804 57.9065 73.4272 57.9065 71.878V70.7692C57.9065 69.22 58.697 68.5669 59.9834 68.5669C60.6344 68.5669 61.1924 68.7491 61.5799 69.1289L61.7968 68.7188H62.6338V68.7036ZM61.3784 70.6173C61.3009 69.9946 60.8824 69.706 60.2624 69.706C59.5649 69.706 59.162 70.0554 59.162 70.83V71.8172C59.162 72.5919 59.5649 72.9412 60.2624 72.9412C60.8824 72.9412 61.3009 72.6374 61.3784 72.0299V70.6173Z" fill="white"/>
<path d="M63.7808 66.7139H65.0672V68.0201H63.7808V66.7139ZM63.7963 68.6884H65.0517V73.9133H63.7963V68.6884Z" fill="white"/>
<path d="M70.8949 70.8907V73.9285H69.6395V70.8756C69.6395 70.0706 69.2055 69.6908 68.5855 69.6908C68.0121 69.6908 67.5006 70.025 67.4696 70.7237V73.9285H66.2296V68.7036H67.0356L67.2681 69.1592C67.6711 68.7643 68.2445 68.5669 68.88 68.5669C70.1045 68.5669 70.8949 69.2504 70.8949 70.9059V70.8907Z" fill="white"/>
<path d="M71.6699 72.3033V72.197H72.9098V72.3033C72.9098 72.7286 73.3128 72.9868 73.9173 72.9868C74.4288 72.9868 74.7852 72.7893 74.7852 72.4552C74.7852 71.4983 71.7629 72.1362 71.7629 70.2376C71.7629 69.22 72.5999 68.5517 73.8398 68.5517C75.0797 68.5517 75.9322 69.2656 75.9322 70.2528V70.3591H74.6923V70.2528C74.6923 69.8579 74.3513 69.6149 73.8243 69.6149C73.2973 69.6149 72.9718 69.8579 72.9718 70.1465C72.9718 71.0122 76.0097 70.4199 76.0097 72.364C76.0097 73.5032 74.9867 74.05 73.8398 74.05C72.4914 74.05 71.6544 73.3361 71.6544 72.2881L71.6699 72.3033Z" fill="white"/>
<path d="M81.9924 72.7893V73.9285H81.233C79.9775 73.9285 79.3265 73.2905 79.3265 71.9691V69.8427H78.6136V68.7036H79.3265V67.1999H80.582V68.6884H81.9149V69.8275H80.582V71.7261C80.582 72.4704 80.892 72.8045 81.4964 72.8045H81.9924V72.7893Z" fill="white"/>
<path d="M87.3707 70.8907V73.9285H86.1152V70.8907C86.1152 70.0706 85.6813 69.6908 85.0613 69.6908C84.4413 69.6908 83.9763 70.025 83.9298 70.7237V73.9133H82.6899V66H83.9298V68.977C84.3018 68.6884 84.7978 68.5517 85.3403 68.5517C86.5492 68.5517 87.3397 69.2352 87.3397 70.8907H87.3707Z" fill="white"/>
<path d="M92.8884 70.5262V71.6805H89.5251V71.8324C89.5251 72.6678 89.9281 73.0475 90.641 73.0475C91.1835 73.0475 91.633 72.7741 91.633 72.3337V72.2577H92.8884C92.8884 73.3969 91.9895 74.0652 90.6565 74.0652C89.1376 74.0652 88.3006 73.1538 88.3006 71.7869V70.7844C88.3006 69.4174 89.1376 68.5365 90.6255 68.5365C91.9895 68.5365 92.9039 69.3719 92.9039 70.511L92.8884 70.5262ZM91.6175 70.7389V70.5414C91.6175 69.8883 91.292 69.5693 90.6255 69.5693C89.8816 69.5693 89.5251 69.9794 89.5251 70.7389H91.6175Z" fill="white"/>
<path d="M96.0038 71.8476V70.7692C96.0038 69.4023 96.8407 68.5517 98.3287 68.5517C99.7081 68.5517 100.592 69.3871 100.592 70.6781V70.7996H99.3361V70.6477C99.3361 70.025 98.9641 69.6756 98.3287 69.6756C97.6002 69.6756 97.2592 70.0706 97.2592 70.8148V71.8021C97.2592 72.5463 97.6002 72.9412 98.3287 72.9412C98.9486 72.9412 99.3361 72.5919 99.3361 71.9691V71.8172H100.592V71.9388C100.592 73.2298 99.7081 74.0652 98.3287 74.0652C96.8562 74.0652 96.0038 73.2146 96.0038 71.8476Z" fill="white"/>
<path d="M102.823 66V73.9285H101.568V66H102.823Z" fill="white"/>
<path d="M103.986 66.7139H105.272V68.0201H103.986V66.7139ZM104.001 68.6884H105.257V73.9133H104.001V68.6884Z" fill="white"/>
<path d="M111.085 70.8907V73.9285H109.829V70.8756C109.829 70.0706 109.395 69.6908 108.775 69.6908C108.202 69.6908 107.69 70.025 107.659 70.7237V73.9285H106.419V68.7036H107.225L107.458 69.1592C107.861 68.7643 108.434 68.5669 109.07 68.5669C110.294 68.5669 111.085 69.2504 111.085 70.9059V70.8907Z" fill="white"/>
<path d="M112.185 66.7139H113.471V68.0201H112.185V66.7139ZM112.201 68.6884H113.456V73.9133H112.201V68.6884Z" fill="white"/>
<path d="M114.432 71.8476V70.7692C114.432 69.4023 115.269 68.5517 116.757 68.5517C118.137 68.5517 119.02 69.3871 119.02 70.6781V70.7996H117.765V70.6477C117.765 70.025 117.393 69.6756 116.757 69.6756C116.029 69.6756 115.688 70.0706 115.688 70.8148V71.8021C115.688 72.5463 116.029 72.9412 116.757 72.9412C117.377 72.9412 117.765 72.5919 117.765 71.9691V71.8172H119.02V71.9388C119.02 73.2298 118.137 74.0652 116.757 74.0652C115.285 74.0652 114.432 73.2146 114.432 71.8476Z" fill="white"/>
<path d="M124.507 68.7036V73.9285H123.67L123.453 73.5184C123.066 73.8981 122.508 74.0804 121.857 74.0804C120.57 74.0804 119.78 73.4272 119.78 71.878V70.7692C119.78 69.22 120.57 68.5669 121.857 68.5669C122.508 68.5669 123.066 68.7491 123.453 69.1289L123.67 68.7188H124.507V68.7036ZM123.252 70.6173C123.174 69.9946 122.756 69.706 122.136 69.706C121.438 69.706 121.035 70.0554 121.035 70.83V71.8172C121.035 72.5919 121.438 72.9412 122.136 72.9412C122.756 72.9412 123.174 72.6374 123.252 72.0299V70.6173Z" fill="white"/>
<path d="M126.925 66V73.9285H125.669V66H126.925Z" fill="white"/>
<path d="M129.358 66V73.9285H128.103V66H129.358Z" fill="white"/>
<path d="M135 68.7036V74.4297C135 75.5688 134.256 76.4498 132.706 76.4498C131.156 76.4498 130.536 75.6296 130.49 74.6879H131.745C131.792 75.0828 132.148 75.3106 132.691 75.3106C133.295 75.3106 133.745 75.0069 133.745 74.3841V73.7006C133.404 73.9588 132.954 74.0804 132.474 74.0804C131.265 74.0804 130.49 73.3969 130.49 71.7565V68.7036H131.745V71.7413C131.745 72.5463 132.086 72.926 132.737 72.926C133.28 72.926 133.729 72.5919 133.76 71.8932V68.7036H135.015H135Z" fill="white"/>
<path d="M39.4469 83.072V84.2112H38.6874C37.432 84.2112 36.781 83.5732 36.781 82.2518V80.1254H36.068V78.9863H36.781V77.4978H38.0364V78.9863H39.3694V80.1254H38.0364V82.024C38.0364 82.7683 38.3464 83.1024 38.9509 83.1024H39.4469V83.072Z" fill="white"/>
<path d="M44.6391 80.8089V81.9633H41.2758V82.1151C41.2758 82.9505 41.6788 83.3302 42.3917 83.3302C42.9342 83.3302 43.3837 83.0568 43.3837 82.6164V82.5404H44.6391C44.6391 83.6796 43.7402 84.3479 42.4072 84.3479C40.8883 84.3479 40.0513 83.4366 40.0513 82.0696V81.0671C40.0513 79.7001 40.8883 78.8192 42.3762 78.8192C43.7402 78.8192 44.6546 79.6546 44.6546 80.7937L44.6391 80.8089ZM43.3682 81.0216V80.8241C43.3682 80.171 43.0427 79.852 42.3762 79.852C41.6323 79.852 41.2913 80.2621 41.2758 81.0216H43.3682Z" fill="white"/>
<path d="M45.3521 82.586V82.4797H46.592V82.586C46.592 83.0113 46.995 83.2695 47.5995 83.2695C48.111 83.2695 48.4675 83.072 48.4675 82.7379C48.4675 81.781 45.4451 82.4189 45.4451 80.5203C45.4451 79.5027 46.2821 78.8344 47.522 78.8344C48.7619 78.8344 49.6144 79.5483 49.6144 80.5355V80.6418H48.3745V80.5355C48.3745 80.1406 48.0335 79.8976 47.5065 79.8976C46.9795 79.8976 46.654 80.1406 46.654 80.4292C46.654 81.295 49.6919 80.7026 49.6919 82.6467C49.6919 83.7859 48.6689 84.3327 47.522 84.3327C46.1736 84.3327 45.3366 83.6188 45.3366 82.5708L45.3521 82.586Z" fill="white"/>
<path d="M53.3807 83.072V84.2112H52.6213C51.3658 84.2112 50.7149 83.5732 50.7149 82.2518V80.1254H50.0019V78.9863H50.7149V77.4978H51.9703V78.9863H53.3032V80.1254H51.9703V82.024C51.9703 82.7683 52.2803 83.1024 52.8848 83.1024H53.3807V83.072Z" fill="white"/>
<path d="M58.573 80.8089V81.9633H55.2096V82.1151C55.2096 82.9505 55.6126 83.3302 56.3256 83.3302C56.8681 83.3302 57.3176 83.0568 57.3176 82.6164V82.5404H58.573C58.573 83.6796 57.674 84.3479 56.3411 84.3479C54.8222 84.3479 53.9852 83.4366 53.9852 82.0696V81.0671C53.9852 79.7001 54.8222 78.8192 56.3101 78.8192C57.674 78.8192 58.5885 79.6546 58.5885 80.7937L58.573 80.8089ZM57.302 81.0216V80.8241C57.302 80.171 56.9766 79.852 56.3101 79.852C55.5661 79.852 55.2096 80.2621 55.2096 81.0216H57.302Z" fill="white"/>
<path d="M64.1372 76.2827V84.2112H63.3003L63.0833 83.8011C62.6958 84.1808 62.1378 84.3631 61.5024 84.3631C60.2004 84.3631 59.41 83.7099 59.41 82.1607V81.0519C59.41 79.5027 60.2004 78.8496 61.5024 78.8496C62.0448 78.8496 62.5098 78.9711 62.8818 79.2445V76.2979H64.1372V76.2827ZM62.8818 80.9001C62.8043 80.2773 62.3858 79.9887 61.7658 79.9887C61.0684 79.9887 60.6654 80.3381 60.6654 81.1127V82.1151C60.6654 82.8746 61.0684 83.2239 61.7658 83.2239C62.3858 83.2239 62.8043 82.9201 62.8818 82.3126V80.9001Z" fill="white"/>
<path d="M73.3903 79.2293V81.8873C73.3903 83.2999 72.3364 84.196 70.5694 84.196H67.7641V76.9206H70.5539C72.3364 76.9206 73.3903 77.8168 73.3903 79.2293ZM72.1039 79.3052C72.1039 78.5458 71.6079 78.0902 70.6469 78.0902H69.0505V83.0265H70.6314C71.5924 83.0265 72.0884 82.5708 72.0884 81.8114V79.3052H72.1039Z" fill="white"/>
<path d="M79.8225 76.9206V84.2112H78.5981L75.6842 79.2749V84.2112H74.4753V76.9206H75.6842L78.5981 81.8873V76.9206H79.8225Z" fill="white"/>
<path d="M82.3179 78.0902V80.2925H85.3558V81.462H82.3179V84.196H81.0315V76.9206H85.7123V78.0902H82.3179Z" fill="white"/>
<path d="M86.3787 80.8241H88.9671V81.9177H86.3787V80.8241Z" fill="white"/>
<path d="M93.6634 83.0265V84.196H89.5716V83.0265H90.9665V78.0902H89.5716V76.9206H92.2529V83.0265H93.6634Z" fill="white"/>
<path d="M94.3764 82.024V79.1078C94.3764 77.6952 95.4148 76.7687 97.1042 76.7687C98.7937 76.7687 99.8476 77.6801 99.8476 79.1078V82.024C99.8476 83.4517 98.8092 84.3479 97.1197 84.3479C95.4303 84.3479 94.3764 83.4366 94.3764 82.024ZM98.5612 81.9481V79.1837C98.5612 78.4091 98.0807 77.9535 97.1197 77.9535C96.1588 77.9535 95.6628 78.4091 95.6628 79.1837V81.9481C95.6628 82.7075 96.1433 83.1783 97.1042 83.1783C98.0652 83.1783 98.5612 82.7227 98.5612 81.9481Z" fill="white"/>
<path d="M103.226 77.5282V78.1661C103.226 78.8192 102.668 79.2445 101.909 79.2445C101.15 79.2445 100.592 78.8192 100.592 78.1661V77.5282C100.592 76.8599 101.15 76.4346 101.909 76.4346C102.668 76.4346 103.226 76.8599 103.226 77.5282ZM102.916 77.5282C102.916 77.0118 102.498 76.708 101.909 76.708C101.32 76.708 100.902 77.0118 100.902 77.5282V78.1661C100.902 78.6825 101.32 78.9863 101.909 78.9863C102.498 78.9863 102.916 78.6825 102.916 78.1661V77.5282ZM102.389 77.9079L102.668 78.5914H102.281L102.018 77.9838H101.615V78.5914H101.258V76.9966H102.018C102.405 76.9966 102.637 77.1636 102.637 77.4522V77.513C102.637 77.6952 102.544 77.8319 102.389 77.9079ZM101.615 77.6497H102.033C102.188 77.6497 102.265 77.6193 102.265 77.5282V77.4674C102.265 77.3763 102.173 77.3307 102.033 77.3307H101.615V77.6497Z" fill="white"/>
<path d="M36.6105 87.2793H37.8969V88.5855H36.6105V87.2793ZM36.626 89.2538H37.8814V94.4787H36.626V89.2538Z" fill="white"/>
<path d="M43.7247 91.441V94.4787H42.4692V91.4258C42.4692 90.6208 42.0352 90.2411 41.4153 90.2411C40.8418 90.2411 40.3303 90.5752 40.2993 91.2739V94.4787H39.0594V89.2538H39.8653L40.0978 89.7095C40.5008 89.3146 41.0743 89.1171 41.7098 89.1171C42.9342 89.1171 43.7247 89.8006 43.7247 91.4562V91.441Z" fill="white"/>
<path d="M49.3509 89.2538V94.9799C49.3509 96.1191 48.5915 97 47.0105 97C45.4296 97 44.7786 96.1798 44.7166 95.2381H45.9721C46.0186 95.633 46.406 95.8609 46.995 95.8609C47.6305 95.8609 48.0955 95.5571 48.0955 94.9343V94.2357C47.7235 94.5091 47.243 94.6306 46.7005 94.6306C45.4141 94.6306 44.6236 93.9775 44.6236 92.4282V91.3195C44.6236 89.7702 45.4141 89.1171 46.7005 89.1171C47.3515 89.1171 47.9095 89.2994 48.297 89.6791L48.514 89.269H49.3509V89.2538ZM48.0955 91.1676C48.018 90.5448 47.5995 90.2562 46.9795 90.2562C46.2821 90.2562 45.8791 90.6056 45.8791 91.3802V92.3827C45.8791 93.1421 46.2821 93.4914 46.9795 93.4914C47.5995 93.4914 48.018 93.1877 48.0955 92.5801V91.1676Z" fill="white"/>
<path d="M53.4582 90.2562C53.3032 90.2107 53.1327 90.1803 52.9622 90.1803C52.3268 90.1803 51.7533 90.5448 51.7533 91.3346V94.4787H50.5134V89.2538H51.3503L51.5983 89.7246C52.0168 89.3449 52.6058 89.1475 53.1947 89.1475C53.2877 89.1475 53.3807 89.1475 53.4582 89.1627V90.2562Z" fill="white"/>
<path d="M58.5265 91.0916V92.246H55.1631V92.3978C55.1631 93.2332 55.5661 93.6129 56.2791 93.6129C56.8216 93.6129 57.271 93.3395 57.271 92.8991V92.8231H58.5265C58.5265 93.9623 57.6275 94.6306 56.2946 94.6306C54.7757 94.6306 53.9387 93.7193 53.9387 92.3523V91.3498C53.9387 89.9829 54.7757 89.1019 56.2636 89.1019C57.6275 89.1019 58.542 89.9373 58.542 91.0764L58.5265 91.0916ZM57.2556 91.3043V91.1068C57.2556 90.4537 56.9301 90.1347 56.2636 90.1347C55.5196 90.1347 55.1786 90.5448 55.1631 91.3043H57.2556Z" fill="white"/>
<path d="M64.0132 86.5654V94.4939H63.1763L62.9593 94.0838C62.5718 94.4635 62.0138 94.6458 61.3784 94.6458C60.0764 94.6458 59.2705 93.9927 59.2705 92.4434V91.3346C59.2705 89.7854 60.0764 89.1323 61.3784 89.1323C61.9208 89.1323 62.3858 89.2538 62.7578 89.5272V86.5806H64.0132V86.5654ZM62.7578 91.1828C62.6803 90.56 62.2618 90.2714 61.6264 90.2714C60.9289 90.2714 60.5259 90.6208 60.5259 91.3954V92.3978C60.5259 93.1573 60.9289 93.5066 61.6264 93.5066C62.2463 93.5066 62.6648 93.2028 62.7578 92.5953V91.1828Z" fill="white"/>
<path d="M65.1757 87.2793H66.4621V88.5855H65.1757V87.2793ZM65.1912 89.2538H66.4466V94.4787H65.1912V89.2538Z" fill="white"/>
<path d="M72.0264 91.0916V92.246H68.663V92.3978C68.663 93.2332 69.066 93.6129 69.779 93.6129C70.3215 93.6129 70.7709 93.3395 70.7709 92.8991V92.8231H72.0264C72.0264 93.9623 71.1274 94.6306 69.7945 94.6306C68.2756 94.6306 67.4386 93.7193 67.4386 92.3523V91.3498C67.4386 89.9829 68.2756 89.1019 69.7635 89.1019C71.1274 89.1019 72.0419 89.9373 72.0419 91.0764L72.0264 91.0916ZM70.7554 91.3043V91.1068C70.7554 90.4537 70.43 90.1347 69.7635 90.1347C69.0195 90.1347 68.6785 90.5448 68.663 91.3043H70.7554Z" fill="white"/>
<path d="M77.6526 91.441V94.4787H76.3972V91.4258C76.3972 90.6208 75.9632 90.2411 75.3432 90.2411C74.7697 90.2411 74.2583 90.5752 74.2273 91.2739V94.4787H72.9873V89.2538H73.7933L74.0258 89.7095C74.4288 89.3146 75.0022 89.1171 75.6377 89.1171C76.8622 89.1171 77.6526 89.8006 77.6526 91.4562V91.441Z" fill="white"/>
<path d="M81.5739 93.3547V94.4939H80.8145C79.559 94.4939 78.9081 93.856 78.9081 92.5345V90.4081H78.1951V89.269H78.9081V87.7805H80.1635V89.269H81.4964V90.4081H80.1635V92.3067C80.1635 93.051 80.4735 93.3851 81.078 93.3851H81.5739V93.3547Z" fill="white"/>
</g>
<defs>
<linearGradient id="paint0_linear_1335_531" x1="-11.6615" y1="81.2288" x2="57.8138" y2="81.0944" gradientUnits="userSpaceOnUse">
<stop stop-color="#6B3B0F"/>
<stop offset="0.2" stop-color="#CDA246"/>
<stop offset="0.34" stop-color="#F5D37C"/>
<stop offset="0.47" stop-color="#FBF7CF"/>
<stop offset="0.64" stop-color="#FFDD7A"/>
<stop offset="0.8" stop-color="#88581D"/>
<stop offset="1" stop-color="#EEC468"/>
</linearGradient>
<linearGradient id="paint1_linear_1335_531" x1="-2.34873" y1="81.167" x2="49.0581" y2="81.0452" gradientUnits="userSpaceOnUse">
<stop stop-color="#6B3B0F"/>
<stop offset="0.2" stop-color="#CDA246"/>
<stop offset="0.34" stop-color="#F5D37C"/>
<stop offset="0.47" stop-color="#FBF7CF"/>
<stop offset="0.64" stop-color="#FFDD7A"/>
<stop offset="0.8" stop-color="#88581D"/>
<stop offset="1" stop-color="#EEC468"/>
</linearGradient>
<linearGradient id="paint2_linear_1335_531" x1="2.09359" y1="81.1584" x2="42.1282" y2="81.0635" gradientUnits="userSpaceOnUse">
<stop stop-color="#6B3B0F"/>
<stop offset="0.2" stop-color="#CDA246"/>
<stop offset="0.34" stop-color="#F5D37C"/>
<stop offset="0.47" stop-color="#FBF7CF"/>
<stop offset="0.64" stop-color="#FFDD7A"/>
<stop offset="0.8" stop-color="#88581D"/>
<stop offset="1" stop-color="#EEC468"/>
</linearGradient>
<clipPath id="clip0_1335_531">
<rect width="131" height="31" fill="white" transform="translate(4 66)"/>
</clipPath>
</defs>
</svg>
