<svg width="65" height="16" viewBox="0 0 65 16" fill="none" xmlns="http://www.w3.org/2000/svg">
<path d="M61.6604 0.5C63.1467 0.5 64.3408 1.70401 64.3408 3.1714C64.3408 4.6388 63.1467 5.85535 61.6477 5.85535C60.1487 5.85535 58.9418 4.66388 58.9418 3.1714C58.9418 1.67893 60.1614 0.5 61.6477 0.5H61.6604ZM61.635 1.0393C60.5044 1.0393 59.5897 2.00502 59.5897 3.18395C59.5897 4.36288 60.5044 5.31605 61.6477 5.31605C62.791 5.31605 63.7183 4.37542 63.7183 3.18395C63.7183 1.99248 62.791 1.0393 61.6477 1.0393H61.635ZM61.1777 4.72659H60.5425V1.75418C60.7838 1.71656 61.0506 1.66639 61.5079 1.66639C62.0288 1.66639 62.3337 1.75418 62.5369 1.90468C62.7021 2.0301 62.8037 2.23077 62.8037 2.54431C62.8037 2.89548 62.5496 3.14632 62.232 3.23411V3.2592C62.4988 3.30936 62.664 3.54766 62.7148 3.98662C62.7783 4.45067 62.8291 4.62625 62.8799 4.72659H62.2193C62.1431 4.61371 62.105 4.36288 62.0415 3.949C61.9907 3.62291 61.8001 3.49749 61.4825 3.49749H61.1904V4.71405L61.1777 4.72659ZM61.1777 3.0209H61.4825C61.8509 3.0209 62.1431 2.90803 62.1431 2.59448C62.1431 2.34365 61.9653 2.15552 61.5333 2.15552C61.3809 2.15552 61.2666 2.15552 61.1904 2.15552V3.00836L61.1777 3.0209Z" fill="#1D1D1B"/>
<path d="M9.27135 4.04933C8.21696 3.53512 7.01013 3.27174 5.62546 3.27174H0.34082V15.4373H5.63816C7.01013 15.4373 8.22967 15.1739 9.28405 14.6597C10.3384 14.1455 11.1515 13.4306 11.7358 12.5025C12.3202 11.587 12.6124 10.5334 12.6124 9.35452C12.6124 8.17558 12.3202 7.12207 11.7358 6.20652C11.1515 5.29097 10.3384 4.56355 9.28405 4.04933H9.27135ZM10.529 11.9256C10.059 12.6781 9.39838 13.255 8.54725 13.6814C7.69612 14.1079 6.69255 14.3211 5.56194 14.3211H1.71279V4.38796H5.56194C6.70525 4.38796 7.69612 4.60117 8.54725 5.02759C9.39838 5.45401 10.059 6.03094 10.529 6.78345C10.999 7.53595 11.2404 8.3888 11.2404 9.36706C11.2404 10.3453 10.999 11.1982 10.529 11.9507V11.9256Z" fill="#1D1D1B"/>
<path d="M28.2122 4.31271C27.323 5.06522 26.8783 6.11873 26.8783 7.44816V15.4373H28.2503V10.2701H34.4623V9.15385H28.2503V7.44816C28.2503 6.43227 28.5679 5.65468 29.1904 5.11538C29.8128 4.57609 30.7656 4.31271 32.0486 4.31271C33.3317 4.31271 34.4369 4.60117 35.2753 5.17809L35.7708 4.12458C34.818 3.48495 33.5476 3.1714 31.9851 3.1714C30.4226 3.1714 29.1014 3.54766 28.2122 4.31271Z" fill="#1D1D1B"/>
<path d="M40.8648 10.5585H36.1646V11.0853H40.8648V10.5585Z" fill="#1D1D1B"/>
<path d="M41.9446 3.82358H45.2221V15.4373H45.8319V3.28428H41.9446V3.82358Z" fill="#1D1D1B"/>
<path d="M55.5881 3.96154C54.8386 3.45987 53.9621 3.20903 52.9712 3.20903C51.9804 3.20903 51.1165 3.45987 50.3543 3.96154C49.5921 4.46321 48.995 5.17809 48.5758 6.11873C48.1566 7.04682 47.9407 8.12542 47.9407 9.35452C47.9407 10.5836 48.1566 11.6622 48.5758 12.5903C48.995 13.5184 49.5921 14.2333 50.3543 14.7475C51.1165 15.2492 51.9804 15.5 52.9712 15.5C53.9621 15.5 54.8386 15.2492 55.5881 14.7475C56.3376 14.2458 56.9347 13.5309 57.3539 12.5903C57.7731 11.6622 57.9891 10.5836 57.9891 9.35452C57.9891 8.12542 57.7731 7.04682 57.3539 6.11873C56.9347 5.19064 56.3503 4.47575 55.5881 3.96154ZM56.8204 12.3395C56.452 13.1798 55.9438 13.8319 55.2706 14.2834C54.5973 14.735 53.8351 14.9607 52.9712 14.9607C52.1074 14.9607 51.3452 14.735 50.6719 14.2834C50.0113 13.8319 49.4905 13.1798 49.1348 12.3395C48.7664 11.4992 48.5885 10.4958 48.5885 9.35452C48.5885 8.21321 48.7664 7.20987 49.1348 6.36957C49.5032 5.52926 50.0113 4.87709 50.6719 4.42559C51.3325 3.97408 52.0947 3.74833 52.9712 3.74833C53.8478 3.74833 54.61 3.97408 55.2706 4.42559C55.9311 4.87709 56.452 5.52926 56.8204 6.36957C57.1888 7.20987 57.3666 8.21321 57.3666 9.35452C57.3666 10.4958 57.1888 11.4992 56.8204 12.3395Z" fill="#1D1D1B"/>
<path d="M20.7426 3.37207H18.4178C16.9696 3.37207 15.712 3.8612 14.683 4.81438C13.654 5.76756 13.1332 6.94649 13.1332 8.301V15.3997H14.4671V8.301C14.4671 7.27257 14.8482 6.41973 15.6231 5.69231C16.4107 4.96488 17.3126 4.60117 18.4051 4.60117H20.7299C21.8097 4.60117 22.737 4.96488 23.5119 5.69231C24.2868 6.43227 24.6679 7.28512 24.6679 8.31354V15.4122H26.0018V8.301C26.0018 6.94649 25.481 5.7801 24.452 4.81438C23.423 3.84866 22.1654 3.37207 20.7172 3.37207H20.7426Z" fill="#1D1D1B"/>
</svg>
