<svg width="259" height="26" viewBox="0 0 259 26" fill="none" xmlns="http://www.w3.org/2000/svg">
<path d="M0 3.09172V18.2858H2.68316V11.0832H6.96979L6.72237 10.3617H2.68316V4.72119H8.80463V3.09172H0Z" fill="#36363B"/>
<path d="M18.5154 7.68358C18.3965 7.88841 17.5096 10.646 15.858 15.9593H15.8033L13.0077 9.36197C12.5996 8.24304 12.3458 7.68358 12.2397 7.68358H9.58869L9.5437 7.71415L14.5919 19.8205L13.599 22.9419L13.6889 23H14.5501L19.4184 7.74473L19.338 7.68358H18.5154ZM33.3837 9.952L33.4737 9.51177C34.036 8.69245 35.0193 8.2247 36.0443 8.2889C36.4589 8.29807 36.8702 8.36839 37.2622 8.49679C38.2551 8.78111 38.75 9.4384 38.75 10.4687V10.5573C38.7757 11.1107 38.7147 11.6671 38.57 12.2051C38.313 12.9603 37.8278 13.6267 37.1722 14.1189C36.1697 14.874 34.9357 15.299 33.6568 15.3265H33.3869V9.952H33.3837ZM53.1877 7.68358L49.0392 11.8322H48.9942C46.9216 9.23968 45.7776 7.85478 45.5688 7.67747H42.5932L42.5482 7.70804L47.2815 13.5167C46.2564 14.5928 44.8683 15.9777 43.1138 17.6714H35.723L35.4981 17.6408L35.4531 17.6714C35 17.5674 34.5598 17.4084 34.1452 17.2006C33.6343 16.8062 33.3772 16.4149 33.3805 16.0235V15.9593L33.6054 15.9288H33.795C35.5013 15.8951 37.1787 15.5038 38.7082 14.7793C40.5431 13.7062 41.4589 12.5965 41.4589 11.45V11.0434C41.4589 10.4045 41.099 9.75634 40.3792 9.09905C39.2481 8.18496 37.8085 7.68358 36.3239 7.68664H36.2789L36.2339 7.71721L36.1889 7.68664H35.7841C34.759 7.69581 33.75 7.92816 32.831 8.36228C31.3593 9.14797 30.6234 10.0407 30.6234 11.0434V14.871C30.6555 15.4243 30.8612 15.9563 31.2082 16.3996C32.3972 17.6377 34.0906 18.3256 35.8515 18.2858H43.6247L47.7699 14.1617L49.7526 16.5188C50.5559 17.5705 51.0508 18.1605 51.2371 18.2858H54.2127L54.2577 18.2553L49.5405 12.4436C52.2751 9.6738 53.8528 8.10242 54.2738 7.7325L54.1838 7.67441L53.1877 7.68358ZM63.3226 17.4665C62.3618 17.1975 61.8798 16.5494 61.8798 15.5222V13.9936C61.8702 13.6328 61.9312 13.2721 62.0598 12.9327C62.5482 12.1868 63.5411 11.8138 65.0353 11.8138H67.2429V14.0822L67.2879 17.6744H64.2674L64.0424 17.6438L63.9974 17.6744L63.3226 17.4665ZM65.0353 7.68358H62.0726L62.0276 7.71415L61.9827 7.68358L61.8927 7.74167V8.24305L61.9827 8.30113H64.7333C64.9293 8.29502 65.1285 8.31336 65.3181 8.35922C66.6035 8.67411 67.2461 9.203 67.2461 9.94895V11.1718H66.9248L66.8927 11.2207L66.8477 11.1932H66.5713L66.5263 11.2207L66.4814 11.1932H66.2114L66.1665 11.2207L66.1247 11.1932H66.0315L65.9865 11.2207L65.9287 11.1902H65.6587L65.6073 11.2207L65.5623 11.1932H65.4724L65.4274 11.2207L65.3824 11.1932H65.2924L65.2474 11.2207V11.1902L65.0225 11.2177H64.3798C63.4319 11.2574 62.937 11.3247 62.892 11.4225L62.847 11.3919C62.2815 11.502 61.7384 11.7038 61.2404 11.982C60.8644 12.1623 60.5141 12.3886 60.2024 12.6607C59.5212 13.3088 59.1806 13.9508 59.1806 14.5836V14.8465C59.2095 15.4947 59.4826 16.1122 59.9486 16.5861C61.1022 17.6958 62.6832 18.3103 64.322 18.2889H69.91L70 18.2308V11.0434C70 10.273 69.5051 9.51788 68.5122 8.77499C67.8117 8.3317 67.0308 8.0107 66.2114 7.83338C66.2114 7.83338 65.4017 7.70498 65.1318 7.68664H65.0353V7.68358ZM55.4595 7.64995L55.3695 7.70804V18.2278L55.4595 18.2858H57.9852L58.0752 18.2278V7.71415L57.9852 7.65607H55.4595V7.64995ZM24.9807 3L22.3201 4.70896L22.2751 7.6255V7.65607H20.6234L20.5334 7.71415V8.21553L20.6234 8.27362H22.2911V14.1648C22.2911 15.2103 22.5321 15.996 23.0109 16.5219C24.1838 17.6622 25.7969 18.3011 27.4743 18.2889H29.4569L29.5469 18.2308V17.6989L29.5019 17.6683L28.374 17.6989C27.0887 17.6989 26.2179 17.5032 25.7616 17.1088C25.2796 16.8306 25.0386 16.2803 25.0386 15.461V8.27362H29.4569L29.5469 8.21553V7.71415L29.4569 7.65607H25.0257V3H24.9807Z" fill="#36363B"/>
<path d="M57.8952 3.99969H55.4499C55.3008 3.99969 55.1799 4.11467 55.1799 4.2565V6.583C55.1799 6.72483 55.3008 6.8398 55.4499 6.8398H57.8952C58.0443 6.8398 58.1652 6.72483 58.1652 6.583V4.2565C58.1652 4.11467 58.0443 3.99969 57.8952 3.99969Z" fill="#5CB694"/>
<path d="M57.8888 5.13696H56.6517C56.4991 5.13696 56.3753 5.25467 56.3753 5.39988V6.57689C56.3753 6.72209 56.4991 6.8398 56.6517 6.8398H57.8888C58.0414 6.8398 58.1652 6.72209 58.1652 6.57689V5.39988C58.1652 5.25467 58.0414 5.13696 57.8888 5.13696Z" fill="#3A72B0"/>
<path d="M138.351 6.62158C139.438 6.62158 140.312 7.52405 140.312 8.62393C140.312 9.72381 139.438 10.6357 138.341 10.6357C137.245 10.6357 136.361 9.74262 136.361 8.62393C136.361 7.50525 137.254 6.62158 138.341 6.62158H138.351ZM138.332 7.02581C137.505 7.02581 136.836 7.74967 136.836 8.63333C136.836 9.517 137.505 10.2315 138.341 10.2315C139.178 10.2315 139.856 9.5264 139.856 8.63333C139.856 7.74027 139.178 7.02581 138.341 7.02581H138.332ZM137.997 9.78962H137.533V7.56165C137.709 7.53345 137.904 7.49585 138.239 7.49585C138.62 7.49585 138.843 7.56165 138.992 7.67446C139.113 7.76847 139.187 7.91888 139.187 8.1539C139.187 8.41712 139.001 8.60513 138.769 8.67094V8.68974C138.964 8.72734 139.085 8.90595 139.122 9.23498C139.169 9.5828 139.206 9.71441 139.243 9.78962H138.76C138.704 9.70501 138.676 9.517 138.629 9.20678C138.592 8.96236 138.453 8.86835 138.22 8.86835H138.007V9.78022L137.997 9.78962ZM137.997 8.51112H138.22C138.49 8.51112 138.704 8.42652 138.704 8.1915C138.704 8.00349 138.574 7.86248 138.258 7.86248C138.146 7.86248 138.062 7.86248 138.007 7.86248V8.50172L137.997 8.51112Z" fill="#1D1D1B"/>
<path d="M100.018 9.28198C99.2468 8.89655 98.3637 8.69914 97.3506 8.69914H93.4839V17.8178H97.3599C98.3637 17.8178 99.2561 17.6204 100.028 17.235C100.799 16.8495 101.394 16.3137 101.821 15.6181C102.249 14.9318 102.463 14.1421 102.463 13.2585C102.463 12.3748 102.249 11.5852 101.821 10.8989C101.394 10.2127 100.799 9.66741 100.028 9.28198H100.018ZM100.938 15.1856C100.595 15.7497 100.111 16.1821 99.4884 16.5017C98.8657 16.8213 98.1314 16.9812 97.3041 16.9812H94.4877V9.5358H97.3041C98.1407 9.5358 98.8657 9.69561 99.4884 10.0152C100.111 10.3349 100.595 10.7673 100.938 11.3313C101.282 11.8954 101.459 12.5346 101.459 13.2679C101.459 14.0011 101.282 14.6404 100.938 15.2044V15.1856Z" fill="#1D1D1B"/>
<path d="M113.877 9.4794C113.226 10.0434 112.901 10.8331 112.901 11.8296V17.8178H113.905V13.9447H118.45V13.1081H113.905V11.8296C113.905 11.0681 114.137 10.4853 114.593 10.081C115.048 9.67681 115.745 9.4794 116.684 9.4794C117.623 9.4794 118.432 9.69561 119.045 10.128L119.408 9.33839C118.71 8.85895 117.781 8.62393 116.638 8.62393C115.494 8.62393 114.528 8.90595 113.877 9.4794Z" fill="#1D1D1B"/>
<path d="M123.135 14.1609H119.696V14.5558H123.135V14.1609Z" fill="#1D1D1B"/>
<path d="M123.925 9.11277H126.323V17.8178H126.769V8.70854H123.925V9.11277Z" fill="#1D1D1B"/>
<path d="M133.908 9.21618C133.359 8.84015 132.718 8.65213 131.993 8.65213C131.268 8.65213 130.636 8.84015 130.078 9.21618C129.52 9.5922 129.084 10.128 128.777 10.8331C128.47 11.5287 128.312 12.3372 128.312 13.2585C128.312 14.1797 128.47 14.9882 128.777 15.6839C129.084 16.3795 129.52 16.9154 130.078 17.3008C130.636 17.6768 131.268 17.8648 131.993 17.8648C132.718 17.8648 133.359 17.6768 133.908 17.3008C134.456 16.9248 134.893 16.3889 135.2 15.6839C135.506 14.9882 135.664 14.1797 135.664 13.2585C135.664 12.3372 135.506 11.5287 135.2 10.8331C134.893 10.1374 134.465 9.60161 133.908 9.21618ZM134.809 15.4958C134.54 16.1257 134.168 16.6145 133.675 16.953C133.183 17.2914 132.625 17.4606 131.993 17.4606C131.361 17.4606 130.803 17.2914 130.31 16.953C129.827 16.6145 129.446 16.1257 129.186 15.4958C128.916 14.866 128.786 14.1139 128.786 13.2585C128.786 12.403 128.916 11.651 129.186 11.0211C129.455 10.3913 129.827 9.90243 130.31 9.564C130.794 9.22558 131.352 9.05636 131.993 9.05636C132.634 9.05636 133.192 9.22558 133.675 9.564C134.159 9.90243 134.54 10.3913 134.809 11.0211C135.079 11.651 135.209 12.403 135.209 13.2585C135.209 14.1139 135.079 14.866 134.809 15.4958Z" fill="#1D1D1B"/>
<path d="M108.412 8.77434H106.711C105.651 8.77434 104.731 9.14097 103.978 9.85542C103.225 10.5699 102.844 11.4535 102.844 12.4688V17.7896H103.82V12.4688C103.82 11.698 104.099 11.0587 104.666 10.5135C105.242 9.96823 105.902 9.69561 106.701 9.69561H108.402C109.192 9.69561 109.871 9.96823 110.438 10.5135C111.005 11.0681 111.284 11.7074 111.284 12.4782V17.799H112.26V12.4688C112.26 11.4535 111.879 10.5793 111.126 9.85542C110.373 9.13157 109.453 8.77434 108.393 8.77434H108.412Z" fill="#1D1D1B"/>
<rect x="82.5" y="0.5" width="64" height="25" rx="12.5" stroke="black"/>
<path d="M166.096 11.3008C166.037 11.242 165.943 11.2068 165.861 11.2068C165.779 11.2068 165.685 11.242 165.626 11.3126L164.475 12.5355C164.357 12.6649 164.357 12.8648 164.475 12.9941L167.835 16.3572C167.894 16.416 167.988 16.4513 168.07 16.4513C168.152 16.4513 168.234 16.416 168.305 16.3572L176.294 8.3611C176.353 8.3023 176.388 8.21999 176.388 8.12592C176.388 8.03185 176.353 7.96129 176.294 7.89074L175.142 6.73836C175.013 6.60902 174.814 6.60902 174.684 6.73836L168.117 13.3116L166.108 11.3008H166.096ZM168.34 14.0054L174.908 7.43214L175.601 8.12592L168.07 15.6634L165.168 12.7589L165.873 12.0064L167.87 14.0054C167.999 14.1347 168.199 14.1347 168.328 14.0054H168.34Z" fill="url(#paint0_linear_575_1025)"/>
<path d="M176.482 9.43116C176.317 9.50172 176.235 9.68986 176.306 9.85448C176.682 10.7599 176.87 11.7242 176.87 12.7119C176.87 16.8275 173.521 20.1788 169.409 20.1788C165.297 20.1788 161.949 16.8275 161.949 12.7119C161.949 8.59628 165.297 5.24498 169.409 5.24498C170.878 5.24498 172.311 5.6683 173.533 6.49143C173.686 6.5855 173.885 6.55022 173.979 6.39735C174.073 6.24449 174.038 6.04459 173.885 5.95051C172.558 5.06859 171.007 4.59824 169.409 4.59824C164.933 4.59824 161.303 8.24351 161.303 12.7119C161.303 17.1803 164.945 20.8256 169.409 20.8256C173.874 20.8256 177.516 17.1803 177.516 12.7119C177.516 11.6418 177.304 10.5953 176.905 9.60755C176.834 9.44292 176.646 9.36061 176.482 9.43116Z" fill="url(#paint1_linear_575_1025)"/>
<path d="M179.172 11.4184C178.785 11.1244 178.679 10.5835 178.926 10.1602C179.184 9.71338 179.219 9.19598 179.031 8.72563C178.832 8.25527 178.444 7.9025 177.939 7.78491C177.469 7.66732 177.163 7.20872 177.222 6.71485C177.292 6.20921 177.128 5.70358 176.764 5.35081C176.4 4.98628 175.906 4.82166 175.401 4.89221C174.919 4.96276 174.461 4.65703 174.332 4.17491C174.203 3.68104 173.862 3.28123 173.392 3.08133C172.922 2.88143 172.393 2.91671 171.959 3.18716C171.536 3.4341 170.995 3.32827 170.702 2.94023C170.396 2.52866 169.926 2.29348 169.409 2.29348C168.892 2.29348 168.422 2.52866 168.117 2.94023C167.823 3.32827 167.283 3.4341 166.86 3.18716C166.413 2.92847 165.896 2.89319 165.426 3.08133C164.957 3.28123 164.604 3.66928 164.487 4.17491C164.369 4.64527 163.911 4.951 163.417 4.89221C162.912 4.82166 162.407 4.98628 162.055 5.35081C161.69 5.71534 161.526 6.20921 161.596 6.71485C161.667 7.19696 161.361 7.65556 160.88 7.78491C160.386 7.91426 159.987 8.25527 159.787 8.72563C159.587 9.19598 159.623 9.72513 159.893 10.1602C160.14 10.5835 160.034 11.1244 159.646 11.4184C159.235 11.7242 159 12.1945 159 12.7119C159 13.2293 159.235 13.6997 159.646 14.0054C160.034 14.2994 160.14 14.8403 159.893 15.2636C159.634 15.7104 159.599 16.2278 159.787 16.6982C159.987 17.1685 160.375 17.5213 160.88 17.6389C161.35 17.7565 161.655 18.2151 161.596 18.709C161.526 19.2146 161.69 19.7202 162.055 20.073C162.419 20.4375 162.912 20.6022 163.417 20.5316C163.899 20.4611 164.357 20.7668 164.487 21.2489C164.616 21.7428 164.957 22.1426 165.426 22.3425C165.896 22.5424 166.425 22.5071 166.86 22.2366C167.283 21.9897 167.823 22.0955 168.117 22.4836C168.422 22.8952 168.892 23.1303 169.409 23.1303C169.926 23.1303 170.396 22.8952 170.702 22.4836C170.995 22.0955 171.536 21.9897 171.959 22.2366C172.405 22.4953 172.922 22.5306 173.392 22.3425C173.862 22.1426 174.214 21.7545 174.332 21.2489C174.449 20.7785 174.908 20.4728 175.401 20.5316C175.906 20.6022 176.411 20.4375 176.764 20.073C177.128 19.7085 177.292 19.2146 177.222 18.709C177.151 18.2269 177.457 17.7683 177.939 17.6389C178.432 17.5096 178.832 17.1685 179.031 16.6982C179.231 16.2278 179.196 15.6987 178.926 15.2636C178.679 14.8403 178.785 14.2994 179.172 14.0054C179.583 13.6997 179.818 13.2293 179.818 12.7119C179.818 12.1945 179.583 11.7242 179.172 11.4184ZM178.785 13.4762C178.127 13.9701 177.95 14.8756 178.362 15.5928C178.514 15.8515 178.538 16.169 178.42 16.4513C178.303 16.7335 178.068 16.9334 177.774 17.0157C176.975 17.2156 176.47 17.9917 176.576 18.803C176.623 19.1088 176.517 19.4027 176.306 19.6144C176.094 19.8261 175.789 19.9319 175.495 19.8849C174.684 19.7673 173.909 20.2847 173.709 21.0843C173.639 21.3782 173.427 21.6134 173.145 21.731C172.863 21.8486 172.546 21.8251 172.288 21.6722C171.583 21.2489 170.678 21.437 170.173 22.0955C169.985 22.3425 169.715 22.4836 169.409 22.4836C169.104 22.4836 168.822 22.3425 168.646 22.0955C168.328 21.6722 167.847 21.4488 167.353 21.4488C167.071 21.4488 166.789 21.5194 166.531 21.6722C166.272 21.8251 165.955 21.8486 165.673 21.731C165.391 21.6134 165.191 21.3782 165.109 21.0843C164.91 20.2847 164.134 19.779 163.323 19.8849C163.018 19.9319 162.724 19.8261 162.513 19.6144C162.301 19.4027 162.196 19.097 162.243 18.803C162.36 17.9917 161.843 17.2156 161.044 17.0157C160.751 16.9451 160.516 16.7335 160.398 16.4513C160.281 16.169 160.304 15.8515 160.457 15.5928C160.88 14.8873 160.692 13.9819 160.034 13.4762C159.787 13.2881 159.646 13.0176 159.646 12.7119C159.646 12.4062 159.787 12.124 160.034 11.9476C160.692 11.4537 160.868 10.5483 160.457 9.83097C160.304 9.57227 160.281 9.25478 160.398 8.97256C160.516 8.69035 160.751 8.49045 161.044 8.40813C161.843 8.20823 162.348 7.43214 162.243 6.62077C162.196 6.31504 162.301 6.02107 162.513 5.80941C162.724 5.59775 163.03 5.49192 163.323 5.53895C164.134 5.65654 164.91 5.13915 165.109 4.33954C165.18 4.04557 165.391 3.81039 165.673 3.6928C165.955 3.57521 166.272 3.59873 166.531 3.75159C167.236 4.17491 168.14 3.98677 168.646 3.32827C168.834 3.08133 169.104 2.94023 169.409 2.94023C169.715 2.94023 169.997 3.08133 170.173 3.32827C170.666 3.98677 171.571 4.16316 172.288 3.75159C172.546 3.59873 172.863 3.57521 173.145 3.6928C173.427 3.81039 173.627 4.04557 173.709 4.33954C173.909 5.13915 174.684 5.64478 175.495 5.53895C175.8 5.49192 176.094 5.59775 176.306 5.80941C176.517 6.02107 176.623 6.3268 176.576 6.62077C176.458 7.43214 176.975 8.20823 177.774 8.40813C178.068 8.47869 178.303 8.69035 178.42 8.97256C178.538 9.25478 178.514 9.57227 178.362 9.83097C177.939 10.5365 178.127 11.4419 178.785 11.9476C179.031 12.1357 179.172 12.4062 179.172 12.7119C179.172 13.0176 179.031 13.2999 178.785 13.4762Z" fill="url(#paint2_linear_575_1025)"/>
<path d="M183.625 5.44488V3.18716C183.625 2.09358 184.424 1.38805 185.834 1.38805C187.243 1.38805 188.042 2.09358 188.042 3.18716V3.62224H187.02V3.2342C187.02 2.64625 186.633 2.28172 185.845 2.28172C185.058 2.28172 184.612 2.63449 184.612 3.2342V5.38609C184.612 5.97403 185.023 6.33856 185.834 6.33856C186.644 6.33856 187.02 5.98579 187.02 5.38609V4.99804H188.042V5.44488C188.042 6.53846 187.243 7.244 185.834 7.244C184.424 7.244 183.625 6.53846 183.625 5.44488Z" fill="#1D1D1B"/>
<path d="M188.653 5.52719V4.69231C188.653 3.634 189.288 2.9755 190.439 2.9755C191.59 2.9755 192.225 3.634 192.225 4.69231V5.52719C192.225 6.5855 191.59 7.244 190.439 7.244C189.288 7.244 188.653 6.5855 188.653 5.52719ZM191.285 5.49192V4.72758C191.285 4.1514 191.027 3.84566 190.451 3.84566C189.875 3.84566 189.605 4.1514 189.605 4.72758V5.49192C189.605 6.0681 189.863 6.37384 190.439 6.37384C191.015 6.37384 191.285 6.0681 191.285 5.49192Z" fill="#1D1D1B"/>
<path d="M196.501 4.78638V7.13817H195.55V4.77462C195.55 4.1514 195.221 3.85742 194.751 3.85742C194.316 3.85742 193.928 4.11612 193.905 4.65703V7.13817H192.965V3.09309H193.576L193.752 3.44586C194.058 3.14013 194.492 2.98726 194.974 2.98726C195.902 2.98726 196.501 3.51641 196.501 4.79814V4.78638Z" fill="#1D1D1B"/>
<path d="M199.474 6.25625V7.13817H198.898C197.946 7.13817 197.453 6.64429 197.453 5.62126V3.97501H196.913V3.09309H197.453V1.92896H198.405V3.08133H199.415V3.96325H198.405V5.43312C198.405 6.00931 198.64 6.26801 199.098 6.26801H199.474V6.25625Z" fill="#1D1D1B"/>
<path d="M203.445 3.09309V7.13817H202.81L202.646 6.82068C202.352 7.11465 201.929 7.25576 201.436 7.25576C200.461 7.25576 199.861 6.75012 199.861 5.55071V4.69231C199.861 3.4929 200.461 2.98726 201.436 2.98726C201.929 2.98726 202.352 3.12837 202.646 3.42234L202.81 3.10485H203.445V3.09309ZM202.493 4.57472C202.434 4.0926 202.117 3.86918 201.647 3.86918C201.118 3.86918 200.813 4.13964 200.813 4.73934V5.50367C200.813 6.10338 201.118 6.37384 201.647 6.37384C202.117 6.37384 202.434 6.13866 202.493 5.6683V4.57472Z" fill="#1D1D1B"/>
<path d="M204.314 1.55267H205.289V2.56394H204.314V1.55267ZM204.326 3.08133H205.277V7.12641H204.326V3.08133Z" fill="#1D1D1B"/>
<path d="M209.707 4.78638V7.13817H208.755V4.77462C208.755 4.1514 208.426 3.85742 207.956 3.85742C207.521 3.85742 207.134 4.11612 207.11 4.65703V7.13817H206.17V3.09309H206.781L206.958 3.44586C207.263 3.14013 207.698 2.98726 208.179 2.98726C209.107 2.98726 209.707 3.51641 209.707 4.79814V4.78638Z" fill="#1D1D1B"/>
<path d="M210.294 5.87996V5.79765H211.234V5.87996C211.234 6.20921 211.539 6.40911 211.998 6.40911C212.385 6.40911 212.656 6.25625 212.656 5.99755C212.656 5.25674 210.365 5.75061 210.365 4.28074C210.365 3.4929 210.999 2.9755 211.939 2.9755C212.879 2.9755 213.525 3.52817 213.525 4.2925V4.37482H212.585V4.2925C212.585 3.98677 212.327 3.79863 211.927 3.79863C211.528 3.79863 211.281 3.98677 211.281 4.21019C211.281 4.88045 213.584 4.42185 213.584 5.927C213.584 6.80892 212.808 7.23224 211.939 7.23224C210.917 7.23224 210.282 6.67957 210.282 5.8682L210.294 5.87996Z" fill="#1D1D1B"/>
<path d="M218.119 6.25625V7.13817H217.543C216.591 7.13817 216.098 6.64429 216.098 5.62126V3.97501H215.557V3.09309H216.098V1.92896H217.049V3.08133H218.06V3.96325H217.049V5.43312C217.049 6.00931 217.284 6.26801 217.743 6.26801H218.119V6.25625Z" fill="#1D1D1B"/>
<path d="M222.195 4.78638V7.13817H221.244V4.78638C221.244 4.1514 220.915 3.85742 220.445 3.85742C219.975 3.85742 219.622 4.11612 219.587 4.65703V7.12641H218.647V1H219.587V3.30475C219.869 3.08133 220.245 2.9755 220.656 2.9755C221.573 2.9755 222.172 3.50465 222.172 4.78638H222.195Z" fill="#1D1D1B"/>
<path d="M226.378 4.50416V5.39784H223.828V5.51543C223.828 6.16218 224.134 6.45615 224.674 6.45615C225.085 6.45615 225.426 6.24449 225.426 5.90348V5.84468H226.378C226.378 6.7266 225.696 7.244 224.686 7.244C223.535 7.244 222.9 6.53846 222.9 5.48016V4.70407C222.9 3.64576 223.535 2.96374 224.663 2.96374C225.696 2.96374 226.39 3.61049 226.39 4.49241L226.378 4.50416ZM225.414 4.66879V4.51592C225.414 4.01029 225.168 3.76335 224.663 3.76335C224.099 3.76335 223.828 4.08084 223.828 4.66879H225.414Z" fill="#1D1D1B"/>
<path d="M228.739 5.52719V4.69231C228.739 3.634 229.374 2.9755 230.502 2.9755C231.547 2.9755 232.217 3.62224 232.217 4.62175V4.71583H231.265V4.59824C231.265 4.11612 230.983 3.84566 230.502 3.84566C229.949 3.84566 229.691 4.1514 229.691 4.72758V5.49192C229.691 6.0681 229.949 6.37384 230.502 6.37384C230.972 6.37384 231.265 6.10338 231.265 5.62126V5.50367H232.217V5.59775C232.217 6.59726 231.547 7.244 230.502 7.244C229.385 7.244 228.739 6.5855 228.739 5.52719Z" fill="#1D1D1B"/>
<path d="M233.909 1V7.13817H232.957V1H233.909Z" fill="#1D1D1B"/>
<path d="M234.79 1.55267H235.765V2.56394H234.79V1.55267ZM234.802 3.08133H235.753V7.12641H234.802V3.08133Z" fill="#1D1D1B"/>
<path d="M240.171 4.78638V7.13817H239.219V4.77462C239.219 4.1514 238.89 3.85742 238.42 3.85742C237.985 3.85742 237.598 4.11612 237.574 4.65703V7.13817H236.634V3.09309H237.245L237.421 3.44586C237.727 3.14013 238.162 2.98726 238.643 2.98726C239.571 2.98726 240.171 3.51641 240.171 4.79814V4.78638Z" fill="#1D1D1B"/>
<path d="M241.005 1.55267H241.98V2.56394H241.005V1.55267ZM241.016 3.08133H241.968V7.12641H241.016V3.08133Z" fill="#1D1D1B"/>
<path d="M242.708 5.52719V4.69231C242.708 3.634 243.343 2.9755 244.471 2.9755C245.516 2.9755 246.186 3.62224 246.186 4.62175V4.71583H245.234V4.59824C245.234 4.11612 244.952 3.84566 244.471 3.84566C243.918 3.84566 243.66 4.1514 243.66 4.72758V5.49192C243.66 6.0681 243.918 6.37384 244.471 6.37384C244.941 6.37384 245.234 6.10338 245.234 5.62126V5.50367H246.186V5.59775C246.186 6.59726 245.516 7.244 244.471 7.244C243.354 7.244 242.708 6.5855 242.708 5.52719Z" fill="#1D1D1B"/>
<path d="M250.345 3.09309V7.13817H249.71L249.546 6.82068C249.252 7.11465 248.829 7.25576 248.336 7.25576C247.361 7.25576 246.762 6.75012 246.762 5.55071V4.69231C246.762 3.4929 247.361 2.98726 248.336 2.98726C248.829 2.98726 249.252 3.12837 249.546 3.42234L249.71 3.10485H250.345V3.09309ZM249.393 4.57472C249.334 4.0926 249.017 3.86918 248.547 3.86918C248.019 3.86918 247.713 4.13964 247.713 4.73934V5.50367C247.713 6.10338 248.019 6.37384 248.547 6.37384C249.017 6.37384 249.334 6.13866 249.393 5.6683V4.57472Z" fill="#1D1D1B"/>
<path d="M252.178 1V7.13817H251.226V1H252.178Z" fill="#1D1D1B"/>
<path d="M254.022 1V7.13817H253.07V1H254.022Z" fill="#1D1D1B"/>
<path d="M258.299 3.09309V7.52621C258.299 8.40813 257.735 9.09015 256.56 9.09015C255.385 9.09015 254.915 8.45517 254.88 7.72611H255.831C255.867 8.03185 256.137 8.20823 256.548 8.20823C257.006 8.20823 257.347 7.97305 257.347 7.49094V6.96178C257.088 7.16169 256.748 7.25576 256.384 7.25576C255.467 7.25576 254.88 6.7266 254.88 5.45664V3.09309H255.831V5.44488C255.831 6.0681 256.09 6.36208 256.583 6.36208C256.994 6.36208 257.335 6.10338 257.359 5.56247V3.09309H258.31H258.299Z" fill="#1D1D1B"/>
<path d="M185.869 14.2171V15.099H185.293C184.342 15.099 183.848 14.6051 183.848 13.5821V11.9358H183.308V11.0539H183.848V9.90152H184.8V11.0539H185.81V11.9358H184.8V13.4057C184.8 13.9819 185.035 14.2406 185.493 14.2406H185.869V14.2171Z" fill="#1D1D1B"/>
<path d="M189.805 12.465V13.3586H187.255V13.4762C187.255 14.123 187.561 14.417 188.101 14.417C188.512 14.417 188.853 14.2053 188.853 13.8643V13.8055H189.805C189.805 14.6874 189.123 15.2048 188.113 15.2048C186.962 15.2048 186.327 14.4993 186.327 13.441V12.6649C186.327 11.6066 186.962 10.9245 188.089 10.9245C189.123 10.9245 189.816 11.5713 189.816 12.4532L189.805 12.465ZM188.841 12.6296V12.4767C188.841 11.9711 188.595 11.7242 188.089 11.7242C187.525 11.7242 187.267 12.0416 187.255 12.6296H188.841Z" fill="#1D1D1B"/>
<path d="M190.345 13.8408V13.7585H191.285V13.8408C191.285 14.17 191.59 14.3699 192.049 14.3699C192.436 14.3699 192.707 14.2171 192.707 13.9584C192.707 13.2175 190.416 13.7114 190.416 12.2415C190.416 11.4537 191.05 10.9363 191.99 10.9363C192.93 10.9363 193.576 11.489 193.576 12.2533V12.3356H192.636V12.2533C192.636 11.9476 192.378 11.7594 191.978 11.7594C191.579 11.7594 191.332 11.9476 191.332 12.171C191.332 12.8413 193.635 12.3827 193.635 13.8878C193.635 14.7697 192.859 15.193 191.99 15.193C190.968 15.193 190.333 14.6404 190.333 13.829L190.345 13.8408Z" fill="#1D1D1B"/>
<path d="M196.431 14.2171V15.099H195.855C194.904 15.099 194.41 14.6051 194.41 13.5821V11.9358H193.87V11.0539H194.41V9.90152H195.362V11.0539H196.372V11.9358H195.362V13.4057C195.362 13.9819 195.597 14.2406 196.055 14.2406H196.431V14.2171Z" fill="#1D1D1B"/>
<path d="M200.367 12.465V13.3586H197.817V13.4762C197.817 14.123 198.123 14.417 198.663 14.417C199.074 14.417 199.415 14.2053 199.415 13.8643V13.8055H200.367C200.367 14.6874 199.685 15.2048 198.675 15.2048C197.523 15.2048 196.889 14.4993 196.889 13.441V12.6649C196.889 11.6066 197.523 10.9245 198.651 10.9245C199.685 10.9245 200.378 11.5713 200.378 12.4532L200.367 12.465ZM199.403 12.6296V12.4767C199.403 11.9711 199.156 11.7242 198.651 11.7242C198.087 11.7242 197.817 12.0416 197.817 12.6296H199.403Z" fill="#1D1D1B"/>
<path d="M204.584 8.9608V15.099H203.95L203.785 14.7815C203.492 15.0755 203.069 15.2166 202.587 15.2166C201.6 15.2166 201.001 14.7109 201.001 13.5115V12.6531C201.001 11.4537 201.6 10.9481 202.587 10.9481C202.998 10.9481 203.351 11.0421 203.633 11.2538V8.97256H204.584V8.9608ZM203.633 12.5355C203.574 12.0534 203.257 11.83 202.787 11.83C202.258 11.83 201.953 12.1004 201.953 12.7001V13.4762C201.953 14.0642 202.258 14.3346 202.787 14.3346C203.257 14.3346 203.574 14.0995 203.633 13.6291V12.5355Z" fill="#1D1D1B"/>
<path d="M211.598 11.242V13.2999C211.598 14.3934 210.799 15.0872 209.46 15.0872H207.333V9.45468H209.448C210.799 9.45468 211.598 10.1485 211.598 11.242ZM210.623 11.3008C210.623 10.7129 210.247 10.3601 209.519 10.3601H208.309V14.1818H209.507C210.235 14.1818 210.611 13.829 210.611 13.2411V11.3008H210.623Z" fill="#1D1D1B"/>
<path d="M216.474 9.45468V15.099H215.546L213.337 11.2773V15.099H212.421V9.45468H213.337L215.546 13.2999V9.45468H216.474Z" fill="#1D1D1B"/>
<path d="M218.365 10.3601V12.0652H220.668V12.9706H218.365V15.0872H217.39V9.45468H220.938V10.3601H218.365Z" fill="#1D1D1B"/>
<path d="M221.443 12.4767H223.405V13.3234H221.443V12.4767Z" fill="#1D1D1B"/>
<path d="M226.965 14.1818V15.0872H223.864V14.1818H224.921V10.3601H223.864V9.45468H225.896V14.1818H226.965Z" fill="#1D1D1B"/>
<path d="M227.506 13.4057V11.148C227.506 10.0544 228.293 9.33709 229.573 9.33709C230.854 9.33709 231.653 10.0426 231.653 11.148V13.4057C231.653 14.511 230.866 15.2048 229.585 15.2048C228.305 15.2048 227.506 14.4993 227.506 13.4057ZM230.678 13.3469V11.2068C230.678 10.6071 230.314 10.2543 229.585 10.2543C228.857 10.2543 228.481 10.6071 228.481 11.2068V13.3469C228.481 13.9348 228.845 14.2994 229.573 14.2994C230.302 14.2994 230.678 13.9466 230.678 13.3469Z" fill="#1D1D1B"/>
<path d="M234.214 9.92504V10.4189C234.214 10.9245 233.791 11.2538 233.215 11.2538C232.64 11.2538 232.217 10.9245 232.217 10.4189V9.92504C232.217 9.40764 232.64 9.07839 233.215 9.07839C233.791 9.07839 234.214 9.40764 234.214 9.92504ZM233.979 9.92504C233.979 9.52523 233.662 9.29005 233.215 9.29005C232.769 9.29005 232.452 9.52523 232.452 9.92504V10.4189C232.452 10.8187 232.769 11.0539 233.215 11.0539C233.662 11.0539 233.979 10.8187 233.979 10.4189V9.92504ZM233.58 10.219L233.791 10.7482H233.497L233.298 10.2778H232.992V10.7482H232.722V9.51347H233.298C233.591 9.51347 233.768 9.64282 233.768 9.86624V9.91328C233.768 10.0544 233.697 10.1602 233.58 10.219ZM232.992 10.0191H233.309C233.427 10.0191 233.486 9.99559 233.486 9.92504V9.878C233.486 9.80745 233.415 9.77217 233.309 9.77217H232.992V10.0191Z" fill="#1D1D1B"/>
<path d="M183.719 17.4743H184.694V18.4855H183.719V17.4743ZM183.731 19.0029H184.682V23.048H183.731V19.0029Z" fill="#1D1D1B"/>
<path d="M189.111 20.6962V23.048H188.16V20.6845C188.16 20.0612 187.831 19.7673 187.361 19.7673C186.926 19.7673 186.539 20.026 186.515 20.5669V23.048H185.575V19.0029H186.186L186.362 19.3557C186.668 19.05 187.102 18.8971 187.584 18.8971C188.512 18.8971 189.111 19.4263 189.111 20.708V20.6962Z" fill="#1D1D1B"/>
<path d="M193.376 19.0029V23.4361C193.376 24.318 192.801 25 191.602 25C190.404 25 189.91 24.365 189.863 23.636H190.815C190.85 23.9417 191.144 24.1181 191.59 24.1181C192.072 24.1181 192.425 23.8829 192.425 23.4008V22.8599C192.143 23.0715 191.778 23.1656 191.367 23.1656C190.392 23.1656 189.793 22.66 189.793 21.4606V20.6022C189.793 19.4027 190.392 18.8971 191.367 18.8971C191.861 18.8971 192.284 19.0382 192.577 19.3322L192.742 19.0147H193.376V19.0029ZM192.425 20.4846C192.366 20.0025 192.049 19.779 191.579 19.779C191.05 19.779 190.745 20.0495 190.745 20.6492V21.4253C190.745 22.0132 191.05 22.2837 191.579 22.2837C192.049 22.2837 192.366 22.0485 192.425 21.5781V20.4846Z" fill="#1D1D1B"/>
<path d="M196.49 19.779C196.372 19.7438 196.243 19.7202 196.114 19.7202C195.632 19.7202 195.197 20.0025 195.197 20.6139V23.048H194.257V19.0029H194.892L195.08 19.3675C195.397 19.0735 195.843 18.9206 196.29 18.9206C196.36 18.9206 196.431 18.9206 196.49 18.9324V19.779Z" fill="#1D1D1B"/>
<path d="M200.331 20.4258V21.3195H197.782V21.437C197.782 22.0838 198.087 22.3778 198.628 22.3778C199.039 22.3778 199.38 22.1661 199.38 21.8251V21.7663H200.331C200.331 22.6482 199.65 23.1656 198.64 23.1656C197.488 23.1656 196.854 22.4601 196.854 21.4018V20.6257C196.854 19.5674 197.488 18.8854 198.616 18.8854C199.65 18.8854 200.343 19.5321 200.343 20.414L200.331 20.4258ZM199.368 20.5904V20.4375C199.368 19.9319 199.121 19.685 198.616 19.685C198.052 19.685 197.794 20.0025 197.782 20.5904H199.368Z" fill="#1D1D1B"/>
<path d="M204.49 16.9216V23.0598H203.856L203.691 22.7423C203.398 23.0363 202.975 23.1774 202.493 23.1774C201.506 23.1774 200.895 22.6717 200.895 21.4723V20.6139C200.895 19.4145 201.506 18.9089 202.493 18.9089C202.904 18.9089 203.257 19.0029 203.539 19.2146V16.9334H204.49V16.9216ZM203.539 20.4963C203.48 20.0142 203.163 19.7908 202.681 19.7908C202.152 19.7908 201.847 20.0612 201.847 20.6609V21.437C201.847 22.025 202.152 22.2954 202.681 22.2954C203.151 22.2954 203.468 22.0603 203.539 21.5899V20.4963Z" fill="#1D1D1B"/>
<path d="M205.371 17.4743H206.347V18.4855H205.371V17.4743ZM205.383 19.0029H206.335V23.048H205.383V19.0029Z" fill="#1D1D1B"/>
<path d="M210.564 20.4258V21.3195H208.015V21.437C208.015 22.0838 208.32 22.3778 208.861 22.3778C209.272 22.3778 209.613 22.1661 209.613 21.8251V21.7663H210.564C210.564 22.6482 209.883 23.1656 208.873 23.1656C207.721 23.1656 207.087 22.4601 207.087 21.4018V20.6257C207.087 19.5674 207.721 18.8854 208.849 18.8854C209.883 18.8854 210.576 19.5321 210.576 20.414L210.564 20.4258ZM209.601 20.5904V20.4375C209.601 19.9319 209.354 19.685 208.849 19.685C208.285 19.685 208.027 20.0025 208.015 20.5904H209.601Z" fill="#1D1D1B"/>
<path d="M214.829 20.6962V23.048H213.877V20.6845C213.877 20.0612 213.548 19.7673 213.078 19.7673C212.644 19.7673 212.256 20.026 212.233 20.5669V23.048H211.293V19.0029H211.904L212.08 19.3557C212.385 19.05 212.82 18.8971 213.302 18.8971C214.23 18.8971 214.829 19.4263 214.829 20.708V20.6962Z" fill="#1D1D1B"/>
<path d="M217.801 22.1779V23.0598H217.226C216.274 23.0598 215.781 22.5659 215.781 21.5429V19.8966H215.24V19.0147H215.781V17.8623H216.732V19.0147H217.743V19.8966H216.732V21.3665C216.732 21.9427 216.967 22.2014 217.425 22.2014H217.801V22.1779Z" fill="#1D1D1B"/>
<defs>
<linearGradient id="paint0_linear_575_1025" x1="102.369" y1="13.0899" x2="353.572" y2="11.1187" gradientUnits="userSpaceOnUse">
<stop stop-color="#6B3B0F"/>
<stop offset="0.2" stop-color="#CDA246"/>
<stop offset="0.34" stop-color="#F5D37C"/>
<stop offset="0.47" stop-color="#FBF7CF"/>
<stop offset="0.64" stop-color="#FFDD7A"/>
<stop offset="0.8" stop-color="#88581D"/>
<stop offset="1" stop-color="#EEC468"/>
</linearGradient>
<linearGradient id="paint1_linear_575_1025" x1="136.043" y1="13.0348" x2="321.91" y2="11.2482" gradientUnits="userSpaceOnUse">
<stop stop-color="#6B3B0F"/>
<stop offset="0.2" stop-color="#CDA246"/>
<stop offset="0.34" stop-color="#F5D37C"/>
<stop offset="0.47" stop-color="#FBF7CF"/>
<stop offset="0.64" stop-color="#FFDD7A"/>
<stop offset="0.8" stop-color="#88581D"/>
<stop offset="1" stop-color="#EEC468"/>
</linearGradient>
<linearGradient id="paint2_linear_575_1025" x1="152.107" y1="13.0271" x2="296.856" y2="11.6358" gradientUnits="userSpaceOnUse">
<stop stop-color="#6B3B0F"/>
<stop offset="0.2" stop-color="#CDA246"/>
<stop offset="0.34" stop-color="#F5D37C"/>
<stop offset="0.47" stop-color="#FBF7CF"/>
<stop offset="0.64" stop-color="#FFDD7A"/>
<stop offset="0.8" stop-color="#88581D"/>
<stop offset="1" stop-color="#EEC468"/>
</linearGradient>
</defs>
</svg>
