<svg width="355" height="33" viewBox="0 0 355 33" fill="none" xmlns="http://www.w3.org/2000/svg">
<path fill-rule="evenodd" clip-rule="evenodd" d="M126.464 0.655136H182.536C190.303 0.655136 196.6 6.99229 196.6 14.8091V18.1907C196.6 26.0075 190.303 32.3443 182.536 32.3443H126.464C118.697 32.3443 112.4 26.0075 112.4 18.1907V14.8091C112.4 6.99229 118.697 0.655136 126.464 0.655136Z" stroke="white"/>
<path d="M181.613 9.5C182.936 9.5 184 10.4632 184 11.6371C184 12.811 182.936 13.7843 181.601 13.7843C180.266 13.7843 179.192 12.8311 179.192 11.6371C179.192 10.4431 180.278 9.5 181.601 9.5H181.613ZM181.59 9.93144C180.583 9.93144 179.769 10.704 179.769 11.6472C179.769 12.5903 180.583 13.3528 181.601 13.3528C182.62 13.3528 183.446 12.6003 183.446 11.6472C183.446 10.694 182.62 9.93144 181.601 9.93144H181.59ZM181.183 12.8813H180.617V10.5033C180.832 10.4732 181.07 10.4331 181.477 10.4331C181.941 10.4331 182.212 10.5033 182.393 10.6237C182.54 10.7241 182.631 10.8846 182.631 11.1355C182.631 11.4164 182.405 11.6171 182.122 11.6873V11.7074C182.359 11.7475 182.507 11.9381 182.552 12.2893C182.608 12.6605 182.654 12.801 182.699 12.8813H182.111C182.043 12.791 182.009 12.5903 181.952 12.2592C181.907 11.9983 181.737 11.898 181.454 11.898H181.194V12.8712L181.183 12.8813ZM181.183 11.5167H181.454C181.782 11.5167 182.043 11.4264 182.043 11.1756C182.043 10.9749 181.884 10.8244 181.5 10.8244C181.364 10.8244 181.262 10.8244 181.194 10.8244V11.5067L181.183 11.5167Z" fill="white"/>
<path d="M134.954 12.3395C134.015 11.9281 132.94 11.7174 131.707 11.7174H127V21.4498H131.718C132.94 21.4498 134.026 21.2391 134.965 20.8278C135.904 20.4164 136.628 19.8445 137.149 19.102C137.669 18.3696 137.929 17.5268 137.929 16.5836C137.929 15.6405 137.669 14.7977 137.149 14.0652C136.628 13.3328 135.904 12.7508 134.965 12.3395H134.954ZM136.074 18.6405C135.655 19.2425 135.067 19.704 134.309 20.0452C133.551 20.3863 132.657 20.5569 131.65 20.5569H128.222V12.6104H131.65C132.668 12.6104 133.551 12.7809 134.309 13.1221C135.067 13.4632 135.655 13.9247 136.074 14.5268C136.492 15.1288 136.707 15.811 136.707 16.5936C136.707 17.3763 136.492 18.0585 136.074 18.6605V18.6405Z" fill="white"/>
<path d="M151.823 12.5502C151.031 13.1522 150.635 13.995 150.635 15.0585V21.4498H151.857V17.3161H157.389V16.4231H151.857V15.0585C151.857 14.2458 152.14 13.6237 152.694 13.1923C153.249 12.7609 154.097 12.5502 155.24 12.5502C156.382 12.5502 157.367 12.7809 158.114 13.2425L158.555 12.3997C157.706 11.888 156.575 11.6371 155.183 11.6371C153.792 11.6371 152.615 11.9381 151.823 12.5502Z" fill="white"/>
<path d="M163.092 17.5468H158.906V17.9682H163.092V17.5468Z" fill="white"/>
<path d="M164.053 12.1589H166.972V21.4498H167.515V11.7274H164.053V12.1589Z" fill="white"/>
<path d="M176.205 12.2692C175.537 11.8679 174.756 11.6672 173.874 11.6672C172.991 11.6672 172.222 11.8679 171.543 12.2692C170.864 12.6706 170.333 13.2425 169.959 13.995C169.586 14.7375 169.394 15.6003 169.394 16.5836C169.394 17.5669 169.586 18.4298 169.959 19.1722C170.333 19.9147 170.864 20.4866 171.543 20.898C172.222 21.2993 172.991 21.5 173.874 21.5C174.756 21.5 175.537 21.2993 176.205 20.898C176.872 20.4967 177.404 19.9248 177.777 19.1722C178.151 18.4298 178.343 17.5669 178.343 16.5836C178.343 15.6003 178.151 14.7375 177.777 13.995C177.404 13.2525 176.883 12.6806 176.205 12.2692ZM177.302 18.9716C176.974 19.6438 176.521 20.1656 175.922 20.5268C175.322 20.888 174.643 21.0686 173.874 21.0686C173.105 21.0686 172.426 20.888 171.826 20.5268C171.238 20.1656 170.774 19.6438 170.457 18.9716C170.129 18.2993 169.971 17.4967 169.971 16.5836C169.971 15.6706 170.129 14.8679 170.457 14.1957C170.785 13.5234 171.238 13.0017 171.826 12.6405C172.414 12.2793 173.093 12.0987 173.874 12.0987C174.655 12.0987 175.333 12.2793 175.922 12.6405C176.51 13.0017 176.974 13.5234 177.302 14.1957C177.63 14.8679 177.789 15.6706 177.789 16.5836C177.789 17.4967 177.63 18.2993 177.302 18.9716Z" fill="white"/>
<path d="M145.17 11.7977H143.1C141.81 11.7977 140.69 12.189 139.774 12.9515C138.857 13.714 138.393 14.6572 138.393 15.7408V21.4197H139.581V15.7408C139.581 14.9181 139.921 14.2358 140.611 13.6538C141.312 13.0719 142.116 12.7809 143.089 12.7809H145.159C146.121 12.7809 146.947 13.0719 147.637 13.6538C148.327 14.2458 148.666 14.9281 148.666 15.7508V21.4298H149.854V15.7408C149.854 14.6572 149.39 13.7241 148.474 12.9515C147.558 12.1789 146.437 11.7977 145.148 11.7977H145.17Z" fill="white"/>
<g clip-path="url(#clip0_1045_506)">
<path d="M237.06 14.3764C236.985 14.3029 236.865 14.2588 236.76 14.2588C236.655 14.2588 236.535 14.3029 236.46 14.3911L234.99 15.9197C234.84 16.0814 234.84 16.3313 234.99 16.493L239.279 20.6968C239.354 20.7703 239.474 20.8144 239.579 20.8144C239.684 20.8144 239.789 20.7703 239.879 20.6968L250.079 10.7017C250.154 10.6282 250.199 10.5253 250.199 10.4077C250.199 10.2901 250.154 10.202 250.079 10.1138L248.609 8.67329C248.444 8.5116 248.189 8.5116 248.024 8.67329L239.639 16.8898L237.075 14.3764H237.06ZM239.924 17.7571L248.309 9.54051L249.194 10.4077L239.579 19.8296L235.875 16.199L236.775 15.2583L239.324 17.7571C239.489 17.9188 239.744 17.9188 239.909 17.7571H239.924Z" fill="url(#paint0_linear_1045_506)"/>
<path d="M250.319 12.0393C250.109 12.1275 250.004 12.3627 250.094 12.5684C250.574 13.7002 250.814 14.9055 250.814 16.1402C250.814 21.2848 246.539 25.4739 241.289 25.4739C236.04 25.4739 231.765 21.2848 231.765 16.1402C231.765 10.9957 236.04 6.80656 241.289 6.80656C243.164 6.80656 244.994 7.33571 246.554 8.36462C246.749 8.48221 247.004 8.43811 247.124 8.24703C247.244 8.05594 247.199 7.80607 247.004 7.68848C245.309 6.58608 243.329 5.99813 241.289 5.99813C235.575 5.99813 230.94 10.5547 230.94 16.1402C230.94 21.7257 235.59 26.2823 241.289 26.2823C246.989 26.2823 251.639 21.7257 251.639 16.1402C251.639 14.8026 251.369 13.4945 250.859 12.2598C250.769 12.054 250.529 11.9511 250.319 12.0393Z" fill="url(#paint1_linear_1045_506)"/>
<path d="M253.754 14.5234C253.259 14.1559 253.124 13.4798 253.439 12.9506C253.769 12.3921 253.814 11.7453 253.574 11.1574C253.319 10.5694 252.824 10.1285 252.179 9.98147C251.579 9.83448 251.189 9.26123 251.264 8.64389C251.354 8.01185 251.144 7.3798 250.679 6.93884C250.214 6.48318 249.584 6.2774 248.939 6.3656C248.324 6.45379 247.739 6.07162 247.574 5.46898C247.409 4.85163 246.974 4.35188 246.374 4.102C245.774 3.85212 245.099 3.89622 244.544 4.23429C244.004 4.54296 243.314 4.41067 242.939 3.92561C242.549 3.41116 241.949 3.11719 241.289 3.11719C240.629 3.11719 240.029 3.41116 239.639 3.92561C239.264 4.41067 238.575 4.54296 238.035 4.23429C237.465 3.91092 236.805 3.86682 236.205 4.102C235.605 4.35188 235.155 4.83693 235.005 5.46898C234.855 6.05692 234.27 6.43909 233.64 6.3656C232.995 6.2774 232.35 6.48318 231.9 6.93884C231.435 7.3945 231.225 8.01185 231.315 8.64389C231.405 9.24654 231.015 9.81978 230.4 9.98147C229.77 10.1432 229.26 10.5694 229.005 11.1574C228.75 11.7453 228.795 12.4068 229.14 12.9506C229.455 13.4798 229.32 14.1559 228.825 14.5234C228.3 14.9055 228 15.4935 228 16.1402C228 16.787 228.3 17.3749 228.825 17.7571C229.32 18.1245 229.455 18.8007 229.14 19.3298C228.81 19.8884 228.765 20.5351 229.005 21.1231C229.26 21.711 229.755 22.152 230.4 22.299C231 22.4459 231.39 23.0192 231.315 23.6365C231.225 24.2686 231.435 24.9006 231.9 25.3416C232.365 25.7972 232.995 26.003 233.64 25.9148C234.255 25.8266 234.84 26.2088 235.005 26.8115C235.17 27.4288 235.605 27.9286 236.205 28.1784C236.805 28.4283 237.48 28.3842 238.035 28.0461C238.575 27.7375 239.264 27.8698 239.639 28.3548C240.029 28.8693 240.629 29.1632 241.289 29.1632C241.949 29.1632 242.549 28.8693 242.939 28.3548C243.314 27.8698 244.004 27.7375 244.544 28.0461C245.114 28.3695 245.774 28.4136 246.374 28.1784C246.974 27.9286 247.424 27.4435 247.574 26.8115C247.724 26.2235 248.309 25.8413 248.939 25.9148C249.584 26.003 250.229 25.7972 250.679 25.3416C251.144 24.8859 251.354 24.2686 251.264 23.6365C251.174 23.0339 251.564 22.4606 252.179 22.299C252.809 22.1373 253.319 21.711 253.574 21.1231C253.829 20.5351 253.784 19.8737 253.439 19.3298C253.124 18.8007 253.259 18.1245 253.754 17.7571C254.279 17.3749 254.579 16.787 254.579 16.1402C254.579 15.4935 254.279 14.9055 253.754 14.5234ZM253.259 17.0956C252.419 17.713 252.194 18.8448 252.719 19.7414C252.914 20.0648 252.944 20.4616 252.794 20.8144C252.644 21.1672 252.344 21.417 251.969 21.5199C250.949 21.7698 250.304 22.7399 250.439 23.7541C250.499 24.1363 250.364 24.5038 250.094 24.7683C249.824 25.0329 249.434 25.1652 249.059 25.1064C248.024 24.9594 247.034 25.6062 246.779 26.6057C246.689 26.9731 246.419 27.2671 246.059 27.4141C245.699 27.5611 245.294 27.5317 244.964 27.3406C244.064 26.8115 242.909 27.0466 242.264 27.8698C242.024 28.1784 241.679 28.3548 241.289 28.3548C240.899 28.3548 240.539 28.1784 240.314 27.8698C239.909 27.3406 239.294 27.0613 238.665 27.0613C238.305 27.0613 237.945 27.1495 237.615 27.3406C237.285 27.5317 236.88 27.5611 236.52 27.4141C236.16 27.2671 235.905 26.9731 235.8 26.6057C235.545 25.6062 234.555 24.9741 233.52 25.1064C233.13 25.1652 232.755 25.0329 232.485 24.7683C232.215 24.5038 232.08 24.1216 232.14 23.7541C232.29 22.7399 231.63 21.7698 230.61 21.5199C230.235 21.4317 229.935 21.1672 229.785 20.8144C229.635 20.4616 229.665 20.0648 229.86 19.7414C230.4 18.8595 230.16 17.7277 229.32 17.0956C229.005 16.8604 228.825 16.5224 228.825 16.1402C228.825 15.758 229.005 15.4053 229.32 15.1848C230.16 14.5675 230.385 13.4357 229.86 12.539C229.665 12.2157 229.635 11.8188 229.785 11.466C229.935 11.1133 230.235 10.8634 230.61 10.7605C231.63 10.5106 232.275 9.54051 232.14 8.5263C232.08 8.14414 232.215 7.77667 232.485 7.51209C232.755 7.24752 233.145 7.11523 233.52 7.17402C234.555 7.32101 235.545 6.67427 235.8 5.67476C235.89 5.30729 236.16 5.01332 236.52 4.86633C236.88 4.71934 237.285 4.74874 237.615 4.93982C238.515 5.46898 239.669 5.2338 240.314 4.41067C240.554 4.102 240.899 3.92561 241.289 3.92561C241.679 3.92561 242.039 4.102 242.264 4.41067C242.894 5.2338 244.049 5.45428 244.964 4.93982C245.294 4.74874 245.699 4.71934 246.059 4.86633C246.419 5.01332 246.674 5.30729 246.779 5.67476C247.034 6.67427 248.024 7.30631 249.059 7.17402C249.449 7.11523 249.824 7.24752 250.094 7.51209C250.364 7.77667 250.499 8.15883 250.439 8.5263C250.289 9.54051 250.949 10.5106 251.969 10.7605C252.344 10.8487 252.644 11.1133 252.794 11.466C252.944 11.8188 252.914 12.2157 252.719 12.539C252.179 13.421 252.419 14.5528 253.259 15.1848C253.574 15.42 253.754 15.758 253.754 16.1402C253.754 16.5224 253.574 16.8751 253.259 17.0956Z" fill="url(#paint2_linear_1045_506)"/>
<path d="M259.439 7.0561V4.23395C259.439 2.86698 260.459 1.98506 262.258 1.98506C264.058 1.98506 265.078 2.86698 265.078 4.23395V4.77781H263.773V4.29275C263.773 3.55781 263.278 3.10216 262.273 3.10216C261.268 3.10216 260.698 3.54312 260.698 4.29275V6.98261C260.698 7.71754 261.223 8.1732 262.258 8.1732C263.293 8.1732 263.773 7.73224 263.773 6.98261V6.49755H265.078V7.0561C265.078 8.42308 264.058 9.305 262.258 9.305C260.459 9.305 259.439 8.42308 259.439 7.0561Z" fill="white"/>
<path d="M265.858 7.15899V6.11539C265.858 4.7925 266.668 3.96938 268.138 3.96938C269.608 3.96938 270.418 4.7925 270.418 6.11539V7.15899C270.418 8.48187 269.608 9.305 268.138 9.305C266.668 9.305 265.858 8.48187 265.858 7.15899ZM269.218 7.11489V6.15948C269.218 5.43925 268.888 5.05708 268.153 5.05708C267.418 5.05708 267.073 5.43925 267.073 6.15948V7.11489C267.073 7.83513 267.403 8.2173 268.138 8.2173C268.873 8.2173 269.218 7.83513 269.218 7.11489Z" fill="white"/>
<path d="M275.878 6.23297V9.17271H274.663V6.21828C274.663 5.43925 274.243 5.07178 273.643 5.07178C273.088 5.07178 272.593 5.39515 272.563 6.07129V9.17271H271.363V4.11636H272.143L272.368 4.55732C272.758 4.17516 273.313 3.98408 273.928 3.98408C275.113 3.98408 275.878 4.64552 275.878 6.24767V6.23297Z" fill="white"/>
<path d="M279.673 8.07031V9.17271H278.938C277.723 9.17271 277.093 8.55537 277.093 7.27658V5.21877H276.403V4.11636H277.093V2.6612H278.308V4.10167H279.598V5.20407H278.308V7.0414C278.308 7.76164 278.608 8.08501 279.193 8.08501H279.673V8.07031Z" fill="white"/>
<path d="M284.742 4.11636V9.17271H283.932L283.722 8.77585C283.347 9.14331 282.807 9.3197 282.178 9.3197C280.933 9.3197 280.168 8.68765 280.168 7.18839V6.11538C280.168 4.61612 280.933 3.98408 282.178 3.98408C282.807 3.98408 283.347 4.16046 283.722 4.52793L283.932 4.13106H284.742V4.11636ZM283.527 5.9684C283.452 5.36575 283.047 5.08648 282.447 5.08648C281.773 5.08648 281.383 5.42455 281.383 6.17418V7.12959C281.383 7.87923 281.773 8.2173 282.447 8.2173C283.047 8.2173 283.452 7.92332 283.527 7.33537V5.9684Z" fill="white"/>
<path d="M285.852 2.19084H287.097V3.45492H285.852V2.19084ZM285.867 4.10167H287.082V9.15801H285.867V4.10167Z" fill="white"/>
<path d="M292.737 6.23297V9.17271H291.522V6.21828C291.522 5.43925 291.102 5.07178 290.502 5.07178C289.947 5.07178 289.452 5.39515 289.422 6.07129V9.17271H288.222V4.11636H289.002L289.227 4.55732C289.617 4.17516 290.172 3.98408 290.787 3.98408C291.972 3.98408 292.737 4.64552 292.737 6.24767V6.23297Z" fill="white"/>
<path d="M293.487 7.59995V7.49706H294.687V7.59995C294.687 8.01151 295.077 8.26139 295.662 8.26139C296.157 8.26139 296.502 8.07031 296.502 7.74694C296.502 6.82092 293.577 7.43827 293.577 5.60093C293.577 4.61612 294.387 3.96938 295.587 3.96938C296.787 3.96938 297.612 4.66022 297.612 5.61563V5.71852H296.412V5.61563C296.412 5.23346 296.082 4.99829 295.572 4.99829C295.062 4.99829 294.747 5.23346 294.747 5.51274C294.747 6.35056 297.687 5.77732 297.687 7.65875C297.687 8.76115 296.697 9.2903 295.587 9.2903C294.282 9.2903 293.472 8.59946 293.472 7.58525L293.487 7.59995Z" fill="white"/>
<path d="M303.477 8.07031V9.17271H302.742C301.527 9.17271 300.897 8.55537 300.897 7.27658V5.21877H300.207V4.11636H300.897V2.6612H302.112V4.10167H303.402V5.20407H302.112V7.0414C302.112 7.76164 302.412 8.08501 302.997 8.08501H303.477V8.07031Z" fill="white"/>
<path d="M308.681 6.23297V9.17271H307.466V6.23297C307.466 5.43925 307.046 5.07178 306.446 5.07178C305.846 5.07178 305.396 5.39515 305.351 6.07129V9.15801H304.152V1.5H305.351V4.38094C305.711 4.10167 306.191 3.96938 306.716 3.96938C307.886 3.96938 308.651 4.63082 308.651 6.23297H308.681Z" fill="white"/>
<path d="M314.021 5.88021V6.99731H310.766V7.14429C310.766 7.95272 311.156 8.32019 311.846 8.32019C312.371 8.32019 312.806 8.05561 312.806 7.62935V7.55585H314.021C314.021 8.65826 313.151 9.305 311.861 9.305C310.391 9.305 309.581 8.42308 309.581 7.1002V6.13008C309.581 4.8072 310.391 3.95468 311.831 3.95468C313.151 3.95468 314.036 4.76311 314.036 5.86551L314.021 5.88021ZM312.791 6.08599V5.8949C312.791 5.26286 312.476 4.95419 311.831 4.95419C311.111 4.95419 310.766 5.35105 310.766 6.08599H312.791Z" fill="white"/>
<path d="M317.036 7.15899V6.11539C317.036 4.7925 317.846 3.96938 319.286 3.96938C320.621 3.96938 321.476 4.7778 321.476 6.02719V6.14478H320.261V5.9978C320.261 5.39515 319.901 5.05708 319.286 5.05708C318.581 5.05708 318.251 5.43925 318.251 6.15948V7.11489C318.251 7.83513 318.581 8.2173 319.286 8.2173C319.886 8.2173 320.261 7.87923 320.261 7.27658V7.12959H321.476V7.24718C321.476 8.49657 320.621 9.305 319.286 9.305C317.861 9.305 317.036 8.48187 317.036 7.15899Z" fill="white"/>
<path d="M323.636 1.5V9.17271H322.421V1.5H323.636Z" fill="white"/>
<path d="M324.761 2.19084H326.005V3.45492H324.761V2.19084ZM324.776 4.10167H325.99V9.15801H324.776V4.10167Z" fill="white"/>
<path d="M331.63 6.23297V9.17271H330.415V6.21828C330.415 5.43925 329.995 5.07178 329.395 5.07178C328.84 5.07178 328.345 5.39515 328.315 6.07129V9.17271H327.115V4.11636H327.895L328.12 4.55732C328.51 4.17516 329.065 3.98408 329.68 3.98408C330.865 3.98408 331.63 4.64552 331.63 6.24767V6.23297Z" fill="white"/>
<path d="M332.695 2.19084H333.94V3.45492H332.695V2.19084ZM332.71 4.10167H333.925V9.15801H332.71V4.10167Z" fill="white"/>
<path d="M334.87 7.15899V6.11539C334.87 4.7925 335.68 3.96938 337.12 3.96938C338.455 3.96938 339.31 4.7778 339.31 6.02719V6.14478H338.095V5.9978C338.095 5.39515 337.735 5.05708 337.12 5.05708C336.415 5.05708 336.085 5.43925 336.085 6.15948V7.11489C336.085 7.83513 336.415 8.2173 337.12 8.2173C337.72 8.2173 338.095 7.87923 338.095 7.27658V7.12959H339.31V7.24718C339.31 8.49657 338.455 9.305 337.12 9.305C335.695 9.305 334.87 8.48187 334.87 7.15899Z" fill="white"/>
<path d="M344.62 4.11636V9.17271H343.81L343.6 8.77585C343.225 9.14331 342.685 9.3197 342.055 9.3197C340.81 9.3197 340.045 8.68765 340.045 7.18839V6.11538C340.045 4.61612 340.81 3.98408 342.055 3.98408C342.685 3.98408 343.225 4.16046 343.6 4.52793L343.81 4.13106H344.62V4.11636ZM343.405 5.9684C343.33 5.36575 342.925 5.08648 342.325 5.08648C341.65 5.08648 341.26 5.42455 341.26 6.17418V7.12959C341.26 7.87923 341.65 8.2173 342.325 8.2173C342.925 8.2173 343.33 7.92332 343.405 7.33537V5.9684Z" fill="white"/>
<path d="M346.96 1.5V9.17271H345.745V1.5H346.96Z" fill="white"/>
<path d="M349.314 1.5V9.17271H348.099V1.5H349.314Z" fill="white"/>
<path d="M354.774 4.11636V9.65777C354.774 10.7602 354.054 11.6127 352.554 11.6127C351.054 11.6127 350.454 10.819 350.409 9.90764H351.624C351.669 10.2898 352.014 10.5103 352.539 10.5103C353.124 10.5103 353.559 10.2163 353.559 9.61367V8.95223C353.229 9.20211 352.794 9.3197 352.329 9.3197C351.159 9.3197 350.409 8.65826 350.409 7.0708V4.11636H351.624V7.0561C351.624 7.83513 351.954 8.2026 352.584 8.2026C353.109 8.2026 353.544 7.87923 353.574 7.20309V4.11636H354.789H354.774Z" fill="white"/>
<path d="M262.303 18.0213V19.1237H261.568C260.354 19.1237 259.724 18.5064 259.724 17.2276V15.1698H259.034V14.0674H259.724V12.6269H260.938V14.0674H262.228V15.1698H260.938V17.0071C260.938 17.7273 261.238 18.0507 261.823 18.0507H262.303V18.0213Z" fill="white"/>
<path d="M267.328 15.8312V16.9483H264.073V17.0953C264.073 17.9037 264.463 18.2712 265.153 18.2712C265.678 18.2712 266.113 18.0066 266.113 17.5804V17.5069H267.328C267.328 18.6093 266.458 19.256 265.168 19.256C263.698 19.256 262.888 18.3741 262.888 17.0512V16.0811C262.888 14.7582 263.698 13.9057 265.138 13.9057C266.458 13.9057 267.343 14.7141 267.343 15.8165L267.328 15.8312ZM266.098 16.037V15.8459C266.098 15.2139 265.783 14.9052 265.138 14.9052C264.418 14.9052 264.088 15.3021 264.073 16.037H266.098Z" fill="white"/>
<path d="M268.018 17.551V17.4481H269.218V17.551C269.218 17.9625 269.608 18.2124 270.193 18.2124C270.688 18.2124 271.033 18.0213 271.033 17.6979C271.033 16.7719 268.108 17.3893 268.108 15.5519C268.108 14.5671 268.918 13.9204 270.118 13.9204C271.318 13.9204 272.143 14.6112 272.143 15.5666V15.6695H270.943V15.5666C270.943 15.1845 270.613 14.9493 270.103 14.9493C269.593 14.9493 269.278 15.1845 269.278 15.4637C269.278 16.3016 272.218 15.7283 272.218 17.6097C272.218 18.7121 271.228 19.2413 270.118 19.2413C268.813 19.2413 268.003 18.5505 268.003 17.5363L268.018 17.551Z" fill="white"/>
<path d="M275.788 18.0213V19.1237H275.053C273.838 19.1237 273.208 18.5064 273.208 17.2276V15.1698H272.518V14.0674H273.208V12.6269H274.423V14.0674H275.713V15.1698H274.423V17.0071C274.423 17.7273 274.723 18.0507 275.308 18.0507H275.788V18.0213Z" fill="white"/>
<path d="M280.813 15.8312V16.9483H277.558V17.0953C277.558 17.9037 277.948 18.2712 278.638 18.2712C279.163 18.2712 279.598 18.0066 279.598 17.5804V17.5069H280.813C280.813 18.6093 279.943 19.256 278.653 19.256C277.183 19.256 276.373 18.3741 276.373 17.0512V16.0811C276.373 14.7582 277.183 13.9057 278.623 13.9057C279.943 13.9057 280.828 14.7141 280.828 15.8165L280.813 15.8312ZM279.583 16.037V15.8459C279.583 15.2139 279.268 14.9052 278.623 14.9052C277.903 14.9052 277.558 15.3021 277.558 16.037H279.583Z" fill="white"/>
<path d="M286.197 11.451V19.1237H285.387L285.177 18.7269C284.802 19.0943 284.262 19.2707 283.647 19.2707C282.387 19.2707 281.623 18.6387 281.623 17.1394V16.0664C281.623 14.5671 282.387 13.9351 283.647 13.9351C284.172 13.9351 284.622 14.0527 284.982 14.3172V11.4657H286.197V11.451ZM284.982 15.9194C284.907 15.3168 284.502 15.0375 283.902 15.0375C283.227 15.0375 282.837 15.3756 282.837 16.1252V17.0953C282.837 17.8302 283.227 18.1683 283.902 18.1683C284.502 18.1683 284.907 17.8743 284.982 17.2864V15.9194Z" fill="white"/>
<path d="M295.152 14.3025V16.8748C295.152 18.2418 294.132 19.109 292.422 19.109H289.707V12.0683H292.407C294.132 12.0683 295.152 12.9356 295.152 14.3025ZM293.907 14.376C293.907 13.6411 293.427 13.2001 292.497 13.2001H290.952V17.9772H292.482C293.412 17.9772 293.892 17.5363 293.892 16.8013V14.376H293.907Z" fill="white"/>
<path d="M301.377 12.0683V19.1237H300.192L297.372 14.3466V19.1237H296.202V12.0683H297.372L300.192 16.8748V12.0683H301.377Z" fill="white"/>
<path d="M303.792 13.2001V15.3315H306.731V16.4633H303.792V19.109H302.547V12.0683H307.076V13.2001H303.792Z" fill="white"/>
<path d="M307.721 15.8459H310.226V16.9042H307.721V15.8459Z" fill="white"/>
<path d="M314.771 17.9772V19.109H310.811V17.9772H312.161V13.2001H310.811V12.0683H313.406V17.9772H314.771Z" fill="white"/>
<path d="M315.461 17.0071V14.185C315.461 12.818 316.466 11.9214 318.101 11.9214C319.736 11.9214 320.756 12.8033 320.756 14.185V17.0071C320.756 18.3888 319.751 19.256 318.116 19.256C316.481 19.256 315.461 18.3741 315.461 17.0071ZM319.511 16.9336V14.2585C319.511 13.5088 319.046 13.0679 318.116 13.0679C317.186 13.0679 316.706 13.5088 316.706 14.2585V16.9336C316.706 17.6685 317.171 18.1242 318.101 18.1242C319.031 18.1242 319.511 17.6832 319.511 16.9336Z" fill="white"/>
<path d="M324.026 12.6563V13.2736C324.026 13.9057 323.486 14.3172 322.751 14.3172C322.016 14.3172 321.476 13.9057 321.476 13.2736V12.6563C321.476 12.0096 322.016 11.598 322.751 11.598C323.486 11.598 324.026 12.0096 324.026 12.6563ZM323.726 12.6563C323.726 12.1565 323.321 11.8626 322.751 11.8626C322.181 11.8626 321.776 12.1565 321.776 12.6563V13.2736C321.776 13.7734 322.181 14.0674 322.751 14.0674C323.321 14.0674 323.726 13.7734 323.726 13.2736V12.6563ZM323.216 13.0238L323.486 13.6852H323.111L322.856 13.0973H322.466V13.6852H322.121V12.1418H322.856C323.231 12.1418 323.456 12.3035 323.456 12.5828V12.6416C323.456 12.818 323.366 12.9503 323.216 13.0238ZM322.466 12.7739H322.871C323.021 12.7739 323.096 12.7445 323.096 12.6563V12.5975C323.096 12.5093 323.006 12.4652 322.871 12.4652H322.466V12.7739Z" fill="white"/>
<path d="M259.559 22.0928H260.803V23.3569H259.559V22.0928ZM259.574 24.0037H260.788V29.06H259.574V24.0037Z" fill="white"/>
<path d="M266.443 26.1203V29.06H265.228V26.1056C265.228 25.3266 264.808 24.9591 264.208 24.9591C263.653 24.9591 263.158 25.2825 263.128 25.9586V29.06H261.928V24.0037H262.708L262.933 24.4446C263.323 24.0625 263.878 23.8714 264.493 23.8714C265.678 23.8714 266.443 24.5328 266.443 26.135V26.1203Z" fill="white"/>
<path d="M271.888 24.0037V29.5451C271.888 30.6475 271.153 31.5 269.623 31.5C268.093 31.5 267.463 30.7063 267.403 29.795H268.618C268.663 30.1771 269.038 30.3976 269.608 30.3976C270.223 30.3976 270.673 30.1036 270.673 29.501V28.8248C270.313 29.0894 269.848 29.207 269.323 29.207C268.078 29.207 267.313 28.575 267.313 27.0757V26.0027C267.313 24.5034 268.078 23.8714 269.323 23.8714C269.953 23.8714 270.493 24.0478 270.868 24.4152L271.078 24.0184H271.888V24.0037ZM270.673 25.8557C270.598 25.2531 270.193 24.9738 269.593 24.9738C268.918 24.9738 268.528 25.3119 268.528 26.0615V27.0316C268.528 27.7665 268.918 28.1046 269.593 28.1046C270.193 28.1046 270.598 27.8106 270.673 27.2227V25.8557Z" fill="white"/>
<path d="M275.863 24.9738C275.713 24.9297 275.548 24.9003 275.383 24.9003C274.768 24.9003 274.213 25.2531 274.213 26.0174V29.06H273.013V24.0037H273.823L274.063 24.4593C274.468 24.0919 275.038 23.9008 275.608 23.9008C275.698 23.9008 275.788 23.9008 275.863 23.9155V24.9738Z" fill="white"/>
<path d="M280.768 25.7822V26.8993H277.513V27.0463C277.513 27.8547 277.903 28.2222 278.593 28.2222C279.118 28.2222 279.553 27.9576 279.553 27.5314V27.4579H280.768C280.768 28.5603 279.898 29.207 278.608 29.207C277.138 29.207 276.328 28.3251 276.328 27.0022V26.0321C276.328 24.7092 277.138 23.8567 278.578 23.8567C279.898 23.8567 280.783 24.6651 280.783 25.7675L280.768 25.7822ZM279.538 25.988V25.7969C279.538 25.1649 279.223 24.8562 278.578 24.8562C277.858 24.8562 277.528 25.2531 277.513 25.988H279.538Z" fill="white"/>
<path d="M286.077 21.402V29.0747H285.267L285.057 28.6779C284.682 29.0453 284.142 29.2217 283.527 29.2217C282.268 29.2217 281.488 28.5897 281.488 27.0904V26.0174C281.488 24.5181 282.268 23.8861 283.527 23.8861C284.052 23.8861 284.502 24.0037 284.862 24.2682V21.4167H286.077V21.402ZM284.862 25.8704C284.787 25.2678 284.382 24.9885 283.767 24.9885C283.092 24.9885 282.702 25.3266 282.702 26.0762V27.0463C282.702 27.7812 283.092 28.1193 283.767 28.1193C284.367 28.1193 284.772 27.8253 284.862 27.2374V25.8704Z" fill="white"/>
<path d="M287.202 22.0928H288.447V23.3569H287.202V22.0928ZM287.217 24.0037H288.432V29.06H287.217V24.0037Z" fill="white"/>
<path d="M293.832 25.7822V26.8993H290.577V27.0463C290.577 27.8547 290.967 28.2222 291.657 28.2222C292.182 28.2222 292.617 27.9576 292.617 27.5314V27.4579H293.832C293.832 28.5603 292.962 29.207 291.672 29.207C290.202 29.207 289.392 28.3251 289.392 27.0022V26.0321C289.392 24.7092 290.202 23.8567 291.642 23.8567C292.962 23.8567 293.847 24.6651 293.847 25.7675L293.832 25.7822ZM292.602 25.988V25.7969C292.602 25.1649 292.287 24.8562 291.642 24.8562C290.922 24.8562 290.592 25.2531 290.577 25.988H292.602Z" fill="white"/>
<path d="M299.277 26.1203V29.06H298.062V26.1056C298.062 25.3266 297.642 24.9591 297.042 24.9591C296.487 24.9591 295.992 25.2825 295.962 25.9586V29.06H294.762V24.0037H295.542L295.767 24.4446C296.157 24.0625 296.712 23.8714 297.327 23.8714C298.512 23.8714 299.277 24.5328 299.277 26.135V26.1203Z" fill="white"/>
<path d="M303.072 27.9723V29.0747H302.337C301.122 29.0747 300.492 28.4574 300.492 27.1786V25.1208H299.802V24.0184H300.492V22.5779H301.707V24.0184H302.997V25.1208H301.707V26.9581C301.707 27.6783 302.007 28.0017 302.592 28.0017H303.072V27.9723Z" fill="white"/>
</g>
<path d="M0 5.61006V23.843H3.05658V15.1998H7.93979L7.65792 14.334H3.05658V7.56542H10.03V5.61006H0Z" fill="white"/>
<path d="M21.0922 11.1203C20.9568 11.3661 19.9465 14.6752 18.0649 21.0512H18.0027L14.818 13.1344C14.3531 11.7917 14.0639 11.1203 13.9431 11.1203H10.9232L10.8719 11.157L16.6227 25.6847L15.4916 29.4303L15.594 29.5H16.5751L22.1209 11.1937L22.0293 11.1203H21.0922ZM38.0297 13.8424L38.1322 13.3141C38.7728 12.3309 39.8929 11.7696 41.0607 11.8467C41.5329 11.8577 42.0014 11.9421 42.448 12.0961C43.5791 12.4373 44.1429 13.2261 44.1429 14.4624V14.5688C44.1721 15.2328 44.1026 15.9005 43.9379 16.5462C43.645 17.4523 43.0923 18.2521 42.3455 18.8427C41.2034 19.7489 39.7978 20.2588 38.3409 20.2918H38.0334V13.8424H38.0297ZM60.5898 11.1203L55.864 16.0986H55.8128C53.4517 12.9876 52.1485 11.3257 51.9106 11.113H48.5209L48.4697 11.1496L53.8617 18.12C52.694 19.4113 51.1126 21.0732 49.1139 23.1056H40.6946L40.4384 23.0689L40.3871 23.1056C39.871 22.9809 39.3695 22.7901 38.8973 22.5407C38.3152 22.0674 38.0224 21.5978 38.026 21.1282V21.0512L38.2823 21.0145H38.4983C40.442 20.9742 42.3528 20.5046 44.0953 19.6351C46.1855 18.3474 47.2287 17.0157 47.2287 15.64V15.1521C47.2287 14.3854 46.8187 13.6076 45.9988 12.8189C44.7103 11.722 43.0703 11.1203 41.3791 11.124H41.3279L41.2766 11.1607L41.2254 11.124H40.7642C39.5964 11.135 38.447 11.4138 37.4001 11.9347C35.7235 12.8776 34.8853 13.9488 34.8853 15.1521V19.7452C34.9219 20.4092 35.1562 21.0475 35.5515 21.5795C36.9059 23.0653 38.835 23.8907 40.841 23.843H49.696L54.4181 18.8941L56.6767 21.7226C57.5918 22.9846 58.1555 23.6926 58.3679 23.843H61.7576L61.8088 23.8063L56.4351 16.8323C59.5502 13.5086 61.3476 11.6229 61.8271 11.179L61.7246 11.1093L60.5898 11.1203ZM72.1353 22.8598C71.0408 22.537 70.4917 21.7592 70.4917 20.5266V18.6923C70.4807 18.2594 70.5503 17.8265 70.6967 17.4193C71.2531 16.5242 72.3842 16.0766 74.0864 16.0766H76.6012V18.7987L76.6524 23.1093H73.2115L72.9553 23.0726L72.904 23.1093L72.1353 22.8598ZM74.0864 11.1203H70.7113L70.6601 11.157L70.6088 11.1203L70.5063 11.19V11.7917L70.6088 11.8614H73.7423C73.9656 11.854 74.1925 11.876 74.4085 11.9311C75.8727 12.3089 76.6048 12.9436 76.6048 13.8387V15.3062H76.2388L76.2022 15.3649L76.1509 15.3319H75.8361L75.7849 15.3649L75.7336 15.3319H75.4261L75.3749 15.3649L75.3273 15.3319H75.2211L75.1699 15.3649L75.104 15.3282H74.7965L74.738 15.3649L74.6867 15.3319H74.5842L74.533 15.3649L74.4817 15.3319H74.3792L74.328 15.3649V15.3282L74.0717 15.3612H73.3396C72.2597 15.4089 71.696 15.4896 71.6448 15.607L71.5935 15.5703C70.9493 15.7024 70.3306 15.9445 69.7632 16.2784C69.3349 16.4948 68.9359 16.7663 68.5809 17.0928C67.8048 17.8705 67.4168 18.6409 67.4168 19.4003V19.7158C67.4497 20.4936 67.7609 21.2346 68.2917 21.8033C69.6058 23.135 71.4068 23.8724 73.2737 23.8467H79.6395L79.742 23.777V15.1521C79.742 14.2276 79.1782 13.3215 78.0471 12.43C77.2491 11.898 76.3596 11.5128 75.4261 11.3001C75.4261 11.3001 74.5037 11.146 74.1962 11.124H74.0864V11.1203ZM63.1779 11.0799L63.0754 11.1496V23.7733L63.1779 23.843H66.0551L66.1576 23.7733V11.157L66.0551 11.0873H63.1779V11.0799ZM28.4573 5.5L25.4263 7.55075L25.3751 11.0506V11.0873H23.4936L23.3911 11.157V11.7586L23.4936 11.8283H25.3934V18.8977C25.3934 20.1524 25.6679 21.0952 26.2134 21.7262C27.5495 23.0946 29.3871 23.8614 31.2979 23.8467H33.5565L33.659 23.777V23.1386L33.6077 23.102L32.3229 23.1386C30.8586 23.1386 29.8666 22.9039 29.3468 22.4306C28.7977 22.0968 28.5232 21.4364 28.5232 20.4532V11.8283H33.5565L33.659 11.7586V11.157L33.5565 11.0873H28.5086V5.5H28.4573Z" fill="white"/>
<path d="M65.9526 6.69963H63.1669C62.9971 6.69963 62.8594 6.8376 62.8594 7.0078V9.7996C62.8594 9.9698 62.9971 10.1078 63.1669 10.1078H65.9526C66.1224 10.1078 66.2601 9.9698 66.2601 9.7996V7.0078C66.2601 6.8376 66.1224 6.69963 65.9526 6.69963Z" fill="#5CB694"/>
<path d="M65.9453 8.06435H64.5359C64.3621 8.06435 64.2211 8.20561 64.2211 8.37985V9.79227C64.2211 9.96651 64.3621 10.1078 64.5359 10.1078H65.9453C66.1191 10.1078 66.2601 9.96651 66.2601 9.79227V8.37985C66.2601 8.20561 66.1191 8.06435 65.9453 8.06435Z" fill="#3A72B0"/>
<defs>
<linearGradient id="paint0_linear_1045_506" x1="212.844" y1="16.2378" x2="280.078" y2="16.1077" gradientUnits="userSpaceOnUse">
<stop stop-color="#6B3B0F"/>
<stop offset="0.2" stop-color="#CDA246"/>
<stop offset="0.34" stop-color="#F5D37C"/>
<stop offset="0.47" stop-color="#FBF7CF"/>
<stop offset="0.64" stop-color="#FFDD7A"/>
<stop offset="0.8" stop-color="#88581D"/>
<stop offset="1" stop-color="#EEC468"/>
</linearGradient>
<linearGradient id="paint1_linear_1045_506" x1="221.856" y1="16.178" x2="271.605" y2="16.06" gradientUnits="userSpaceOnUse">
<stop stop-color="#6B3B0F"/>
<stop offset="0.2" stop-color="#CDA246"/>
<stop offset="0.34" stop-color="#F5D37C"/>
<stop offset="0.47" stop-color="#FBF7CF"/>
<stop offset="0.64" stop-color="#FFDD7A"/>
<stop offset="0.8" stop-color="#88581D"/>
<stop offset="1" stop-color="#EEC468"/>
</linearGradient>
<linearGradient id="paint2_linear_1045_506" x1="226.155" y1="16.1696" x2="264.898" y2="16.0778" gradientUnits="userSpaceOnUse">
<stop stop-color="#6B3B0F"/>
<stop offset="0.2" stop-color="#CDA246"/>
<stop offset="0.34" stop-color="#F5D37C"/>
<stop offset="0.47" stop-color="#FBF7CF"/>
<stop offset="0.64" stop-color="#FFDD7A"/>
<stop offset="0.8" stop-color="#88581D"/>
<stop offset="1" stop-color="#EEC468"/>
</linearGradient>
<clipPath id="clip0_1045_506">
<rect width="126.774" height="30" fill="white" transform="translate(228 1.5)"/>
</clipPath>
</defs>
</svg>
