<svg width="386" height="40" viewBox="0 0 386 40" fill="none" xmlns="http://www.w3.org/2000/svg">
<path fill-rule="evenodd" clip-rule="evenodd" d="M18.2081 0.193909H88.7918C98.57 0.193909 106.497 8.11535 106.497 17.8864V22.1133C106.497 31.8844 98.57 39.8054 88.7918 39.8054H18.2081C8.42978 39.8054 0.503113 31.8844 0.503113 22.1133V17.8864C0.503113 8.11535 8.42978 0.193909 18.2081 0.193909Z" fill="white"/>
<path d="M87.9845 10C89.6566 10 91 11.2843 91 12.8495C91 14.4147 89.6566 15.7124 87.9702 15.7124C86.2838 15.7124 84.9262 14.4415 84.9262 12.8495C84.9262 11.2575 86.2981 10 87.9702 10H87.9845ZM87.9559 10.5753C86.684 10.5753 85.655 11.6054 85.655 12.8629C85.655 14.1204 86.684 15.1371 87.9702 15.1371C89.2564 15.1371 90.2997 14.1338 90.2997 12.8629C90.2997 11.592 89.2564 10.5753 87.9702 10.5753H87.9559ZM87.4414 14.5084H86.7269V11.3378C86.9984 11.2977 87.2985 11.2441 87.813 11.2441C88.399 11.2441 88.742 11.3378 88.9706 11.4983C89.1564 11.6321 89.2707 11.8462 89.2707 12.1806C89.2707 12.5552 88.9849 12.8227 88.6276 12.9164V12.9431C88.9278 12.9967 89.1135 13.2508 89.1707 13.7191C89.2422 14.214 89.2993 14.4013 89.3565 14.5084H88.6133C88.5276 14.388 88.4847 14.1204 88.4133 13.6789C88.3561 13.3311 88.1417 13.1973 87.7844 13.1973H87.4557V14.495L87.4414 14.5084ZM87.4414 12.689H87.7844C88.1989 12.689 88.5276 12.5686 88.5276 12.2341C88.5276 11.9666 88.3275 11.7659 87.8416 11.7659C87.6701 11.7659 87.5415 11.7659 87.4557 11.7659V12.6756L87.4414 12.689Z" fill="#1D1D1B"/>
<path d="M29.0468 13.786C27.8607 13.2375 26.503 12.9565 24.9452 12.9565H19V25.9331H24.9595C26.503 25.9331 27.875 25.6522 29.0611 25.1037C30.2473 24.5552 31.162 23.7926 31.8194 22.8027C32.4768 21.8261 32.8055 20.7023 32.8055 19.4448C32.8055 18.1873 32.4768 17.0635 31.8194 16.087C31.162 15.1104 30.2473 14.3344 29.0611 13.786H29.0468ZM30.4617 22.1873C29.9329 22.99 29.1898 23.6054 28.2322 24.0602C27.2747 24.5151 26.1457 24.7425 24.8738 24.7425H20.5435V14.1472H24.8738C26.16 14.1472 27.2747 14.3746 28.2322 14.8294C29.1898 15.2843 29.9329 15.8997 30.4617 16.7023C30.9905 17.505 31.262 18.4147 31.262 19.4582C31.262 20.5017 30.9905 21.4114 30.4617 22.214V22.1873Z" fill="#1D1D1B"/>
<path d="M50.3553 14.0669C49.3549 14.8696 48.8547 15.9933 48.8547 17.4114V25.9331H50.3982V20.4214H57.3867V19.2308H50.3982V17.4114C50.3982 16.3278 50.7555 15.4983 51.4557 14.9231C52.156 14.3478 53.2279 14.0669 54.6713 14.0669C56.1147 14.0669 57.3581 14.3746 58.3013 14.99L58.8587 13.8662C57.7868 13.1839 56.3577 12.8495 54.5998 12.8495C52.842 12.8495 51.3557 13.2508 50.3553 14.0669Z" fill="#1D1D1B"/>
<path d="M64.5895 20.7291H59.3017V21.291H64.5895V20.7291Z" fill="#1D1D1B"/>
<path d="M65.8043 13.5452H69.4915V25.9331H70.1775V12.9699H65.8043V13.5452Z" fill="#1D1D1B"/>
<path d="M81.1532 13.6923C80.31 13.1572 79.3239 12.8896 78.2092 12.8896C77.0945 12.8896 76.1227 13.1572 75.2652 13.6923C74.4077 14.2274 73.736 14.99 73.2644 15.9933C72.7928 16.9833 72.5498 18.1338 72.5498 19.4448C72.5498 20.7559 72.7928 21.9064 73.2644 22.8963C73.736 23.8863 74.4077 24.6488 75.2652 25.1973C76.1227 25.7324 77.0945 26 78.2092 26C79.3239 26 80.31 25.7324 81.1532 25.1973C81.9964 24.6622 82.6681 23.8997 83.1397 22.8963C83.6114 21.9064 83.8543 20.7559 83.8543 19.4448C83.8543 18.1338 83.6114 16.9833 83.1397 15.9933C82.6681 15.0033 82.0107 14.2408 81.1532 13.6923ZM82.5395 22.6288C82.125 23.5251 81.5534 24.2207 80.796 24.7023C80.0385 25.1839 79.181 25.4247 78.2092 25.4247C77.2374 25.4247 76.3799 25.1839 75.6225 24.7023C74.8793 24.2207 74.2934 23.5251 73.8932 22.6288C73.4788 21.7324 73.2787 20.6622 73.2787 19.4448C73.2787 18.2274 73.4788 17.1572 73.8932 16.2609C74.3077 15.3645 74.8793 14.6689 75.6225 14.1873C76.3656 13.7057 77.2231 13.4649 78.2092 13.4649C79.1953 13.4649 80.0528 13.7057 80.796 14.1873C81.5391 14.6689 82.125 15.3645 82.5395 16.2609C82.9539 17.1572 83.154 18.2274 83.154 19.4448C83.154 20.6622 82.9539 21.7324 82.5395 22.6288Z" fill="#1D1D1B"/>
<path d="M41.952 13.0635H39.3366C37.7074 13.0635 36.2926 13.5853 35.135 14.602C33.9774 15.6187 33.3914 16.8763 33.3914 18.3211V25.893H34.892V18.3211C34.892 17.2241 35.3208 16.3144 36.1925 15.5385C37.0786 14.7625 38.0933 14.3746 39.3223 14.3746H41.9377C43.1524 14.3746 44.1957 14.7625 45.0675 15.5385C45.9393 16.3278 46.368 17.2375 46.368 18.3344V25.9064H47.8686V18.3211C47.8686 16.8763 47.2827 15.6321 46.125 14.602C44.9674 13.5719 43.5526 13.0635 41.9234 13.0635H41.952Z" fill="#1D1D1B"/>
<g clip-path="url(#clip0_550_280)">
<path d="M137.362 17.3053C137.284 17.2293 137.16 17.1838 137.052 17.1838C136.943 17.1838 136.819 17.2293 136.742 17.3205L135.223 18.9001C135.068 19.0672 135.068 19.3254 135.223 19.4924L139.655 23.8364C139.733 23.9123 139.857 23.9579 139.965 23.9579C140.074 23.9579 140.182 23.9123 140.275 23.8364L150.815 13.5081C150.892 13.4322 150.939 13.3258 150.939 13.2043C150.939 13.0828 150.892 12.9917 150.815 12.9006L149.296 11.4121C149.126 11.245 148.862 11.245 148.692 11.4121L140.027 19.9025L137.377 17.3053H137.362ZM140.322 20.7987L148.986 12.3082L149.9 13.2043L139.965 22.9403L136.137 19.1887L137.067 18.2166L139.702 20.7987C139.872 20.9657 140.136 20.9657 140.306 20.7987H140.322Z" fill="url(#paint0_linear_550_280)"/>
<path d="M151.063 14.8903C150.846 14.9814 150.737 15.2244 150.83 15.4371C151.326 16.6066 151.574 17.8521 151.574 19.1279C151.574 24.4439 147.157 28.7727 141.732 28.7727C136.308 28.7727 131.89 24.4439 131.89 19.1279C131.89 13.8119 136.308 9.48312 141.732 9.48312C143.67 9.48312 145.561 10.0299 147.173 11.0931C147.374 11.2146 147.638 11.1691 147.762 10.9716C147.886 10.7742 147.839 10.516 147.638 10.3944C145.886 9.25529 143.84 8.64775 141.732 8.64775C135.827 8.64775 131.038 13.3562 131.038 19.1279C131.038 24.8996 135.843 29.6081 141.732 29.6081C147.622 29.6081 152.427 24.8996 152.427 19.1279C152.427 17.7457 152.148 16.394 151.621 15.1181C151.528 14.9055 151.28 14.7991 151.063 14.8903Z" fill="url(#paint1_linear_550_280)"/>
<path d="M154.612 17.4572C154.101 17.0774 153.961 16.3788 154.287 15.832C154.628 15.2548 154.674 14.5865 154.426 13.979C154.163 13.3714 153.651 12.9158 152.985 12.7639C152.365 12.612 151.962 12.0196 152.039 11.3817C152.132 10.7286 151.915 10.0755 151.435 9.61982C150.954 9.14897 150.303 8.93633 149.637 9.02746C149.002 9.1186 148.397 8.72369 148.227 8.10096C148.056 7.46304 147.607 6.94662 146.987 6.68841C146.367 6.43021 145.669 6.47577 145.096 6.82511C144.538 7.14407 143.825 7.00738 143.437 6.50615C143.034 5.97455 142.414 5.67078 141.732 5.67078C141.05 5.67078 140.43 5.97455 140.027 6.50615C139.64 7.00738 138.927 7.14407 138.369 6.82511C137.78 6.49096 137.098 6.4454 136.478 6.68841C135.858 6.94662 135.393 7.44785 135.238 8.10096C135.083 8.7085 134.479 9.10341 133.828 9.02746C133.161 8.93633 132.495 9.14897 132.03 9.61982C131.549 10.0907 131.332 10.7286 131.425 11.3817C131.518 12.0044 131.115 12.5968 130.48 12.7639C129.829 12.9309 129.302 13.3714 129.038 13.979C128.775 14.5865 128.821 15.27 129.178 15.832C129.503 16.3788 129.364 17.0774 128.852 17.4572C128.31 17.8521 128 18.4596 128 19.1279C128 19.7962 128.31 20.4038 128.852 20.7987C129.364 21.1784 129.503 21.877 129.178 22.4238C128.837 23.001 128.79 23.6693 129.038 24.2769C129.302 24.8844 129.813 25.3401 130.48 25.4919C131.1 25.6438 131.503 26.2362 131.425 26.8741C131.332 27.5272 131.549 28.1803 132.03 28.636C132.51 29.1068 133.161 29.3195 133.828 29.2283C134.463 29.1372 135.068 29.5321 135.238 30.1549C135.409 30.7928 135.858 31.3092 136.478 31.5674C137.098 31.8256 137.796 31.78 138.369 31.4307C138.927 31.1117 139.64 31.2484 140.027 31.7497C140.43 32.2813 141.05 32.585 141.732 32.585C142.414 32.585 143.034 32.2813 143.437 31.7497C143.825 31.2484 144.538 31.1117 145.096 31.4307C145.685 31.7648 146.367 31.8104 146.987 31.5674C147.607 31.3092 148.072 30.808 148.227 30.1549C148.382 29.5473 148.986 29.1524 149.637 29.2283C150.303 29.3195 150.97 29.1068 151.435 28.636C151.915 28.1651 152.132 27.5272 152.039 26.8741C151.946 26.2514 152.349 25.659 152.985 25.4919C153.636 25.3249 154.163 24.8844 154.426 24.2769C154.69 23.6693 154.643 22.9858 154.287 22.4238C153.961 21.877 154.101 21.1784 154.612 20.7987C155.155 20.4038 155.465 19.7962 155.465 19.1279C155.465 18.4596 155.155 17.8521 154.612 17.4572ZM154.101 20.1152C153.233 20.7531 153 21.9226 153.543 22.8491C153.744 23.1833 153.775 23.5934 153.62 23.9579C153.465 24.3224 153.155 24.5806 152.768 24.6869C151.714 24.9452 151.047 25.9476 151.187 26.9956C151.249 27.3905 151.109 27.7702 150.83 28.0436C150.551 28.317 150.148 28.4537 149.761 28.393C148.692 28.2411 147.669 28.9094 147.405 29.9422C147.312 30.3219 147.033 30.6257 146.661 30.7776C146.289 30.9295 145.871 30.8991 145.53 30.7016C144.6 30.1549 143.406 30.3979 142.74 31.2484C142.492 31.5674 142.135 31.7497 141.732 31.7497C141.329 31.7497 140.957 31.5674 140.725 31.2484C140.306 30.7016 139.671 30.4131 139.02 30.4131C138.648 30.4131 138.276 30.5042 137.935 30.7016C137.594 30.8991 137.176 30.9295 136.804 30.7776C136.432 30.6257 136.168 30.3219 136.06 29.9422C135.796 28.9094 134.773 28.2563 133.704 28.393C133.301 28.4537 132.913 28.317 132.634 28.0436C132.355 27.7702 132.216 27.3753 132.278 26.9956C132.433 25.9476 131.751 24.9452 130.697 24.6869C130.309 24.5958 129.999 24.3224 129.844 23.9579C129.689 23.5934 129.72 23.1833 129.922 22.8491C130.48 21.9378 130.232 20.7683 129.364 20.1152C129.038 19.8721 128.852 19.5228 128.852 19.1279C128.852 18.733 129.038 18.3685 129.364 18.1406C130.232 17.5027 130.464 16.3332 129.922 15.4067C129.72 15.0725 129.689 14.6624 129.844 14.2979C129.999 13.9334 130.309 13.6752 130.697 13.5689C131.751 13.3107 132.417 12.3082 132.278 11.2602C132.216 10.8653 132.355 10.4856 132.634 10.2122C132.913 9.93878 133.316 9.80208 133.704 9.86284C134.773 10.0147 135.796 9.34643 136.06 8.3136C136.153 7.93388 136.432 7.63011 136.804 7.47822C137.176 7.32634 137.594 7.35671 137.935 7.55417C138.865 8.10096 140.058 7.85794 140.725 7.00738C140.973 6.68841 141.329 6.50615 141.732 6.50615C142.135 6.50615 142.507 6.68841 142.74 7.00738C143.391 7.85794 144.584 8.08577 145.53 7.55417C145.871 7.35671 146.289 7.32634 146.661 7.47822C147.033 7.63011 147.297 7.93388 147.405 8.3136C147.669 9.34643 148.692 9.99954 149.761 9.86284C150.164 9.80208 150.551 9.93878 150.83 10.2122C151.109 10.4856 151.249 10.8805 151.187 11.2602C151.032 12.3082 151.714 13.3107 152.768 13.5689C153.155 13.66 153.465 13.9334 153.62 14.2979C153.775 14.6624 153.744 15.0725 153.543 15.4067C152.985 16.318 153.233 17.4875 154.101 18.1406C154.426 18.3837 154.612 18.733 154.612 19.1279C154.612 19.5228 154.426 19.8873 154.101 20.1152Z" fill="url(#paint2_linear_550_280)"/>
<path d="M160.487 9.7413V6.82509C160.487 5.41254 161.54 4.50122 163.4 4.50122C165.26 4.50122 166.314 5.41254 166.314 6.82509V7.38707H164.966V6.88584C164.966 6.12641 164.454 5.65556 163.416 5.65556C162.377 5.65556 161.788 6.11122 161.788 6.88584V9.66536C161.788 10.4248 162.331 10.8956 163.4 10.8956C164.47 10.8956 164.966 10.44 164.966 9.66536V9.16414H166.314V9.7413C166.314 11.1538 165.26 12.0652 163.4 12.0652C161.54 12.0652 160.487 11.1538 160.487 9.7413Z" fill="white"/>
<path d="M167.12 9.84762V8.76923C167.12 7.40225 167.957 6.55169 169.476 6.55169C170.995 6.55169 171.832 7.40225 171.832 8.76923V9.84762C171.832 11.2146 170.995 12.0652 169.476 12.0652C167.957 12.0652 167.12 11.2146 167.12 9.84762ZM170.592 9.80206V8.8148C170.592 8.07055 170.251 7.67565 169.492 7.67565C168.732 7.67565 168.376 8.07055 168.376 8.8148V9.80206C168.376 10.5463 168.717 10.9412 169.476 10.9412C170.236 10.9412 170.592 10.5463 170.592 9.80206Z" fill="white"/>
<path d="M177.474 8.89074V11.9285H176.218V8.87555C176.218 8.07055 175.784 7.69084 175.164 7.69084C174.591 7.69084 174.079 8.02499 174.048 8.72366V11.9285H172.808V6.70358H173.614L173.847 7.15924C174.25 6.76433 174.823 6.56688 175.459 6.56688C176.683 6.56688 177.474 7.25037 177.474 8.90593V8.89074Z" fill="white"/>
<path d="M181.395 10.7893V11.9285H180.636C179.38 11.9285 178.729 11.2905 178.729 9.96913V7.84272H178.016V6.70358H178.729V5.1999H179.985V6.68839H181.318V7.82754H179.985V9.72611C179.985 10.4704 180.295 10.8045 180.899 10.8045H181.395V10.7893Z" fill="white"/>
<path d="M186.634 6.70358V11.9285H185.797L185.58 11.5184C185.192 11.8981 184.634 12.0804 183.983 12.0804C182.697 12.0804 181.907 11.4272 181.907 9.878V8.76923C181.907 7.21999 182.697 6.56688 183.983 6.56688C184.634 6.56688 185.192 6.74914 185.58 7.12886L185.797 6.71877H186.634V6.70358ZM185.378 8.61734C185.301 7.99461 184.882 7.70603 184.262 7.70603C183.565 7.70603 183.162 8.05537 183.162 8.82999V9.81725C183.162 10.5919 183.565 10.9412 184.262 10.9412C184.882 10.9412 185.301 10.6374 185.378 10.0299V8.61734Z" fill="white"/>
<path d="M187.781 4.71387H189.067V6.02009H187.781V4.71387ZM187.796 6.68839H189.052V11.9133H187.796V6.68839Z" fill="white"/>
<path d="M194.895 8.89074V11.9285H193.639V8.87555C193.639 8.07055 193.206 7.69084 192.586 7.69084C192.012 7.69084 191.501 8.02499 191.47 8.72366V11.9285H190.23V6.70358H191.036L191.268 7.15924C191.671 6.76433 192.245 6.56688 192.88 6.56688C194.104 6.56688 194.895 7.25037 194.895 8.90593V8.89074Z" fill="white"/>
<path d="M195.67 10.3033V10.197H196.91V10.3033C196.91 10.7286 197.313 10.9868 197.917 10.9868C198.429 10.9868 198.785 10.7893 198.785 10.4552C198.785 9.49829 195.763 10.1362 195.763 8.23763C195.763 7.21999 196.6 6.55169 197.84 6.55169C199.08 6.55169 199.932 7.26556 199.932 8.25282V8.35914H198.692V8.25282C198.692 7.85791 198.351 7.61489 197.824 7.61489C197.297 7.61489 196.972 7.85791 196.972 8.1465C196.972 9.01225 200.01 8.41989 200.01 10.364C200.01 11.5032 198.987 12.05 197.84 12.05C196.491 12.05 195.654 11.3361 195.654 10.2881L195.67 10.3033Z" fill="white"/>
<path d="M205.992 10.7893V11.9285H205.233C203.978 11.9285 203.327 11.2905 203.327 9.96913V7.84272H202.614V6.70358H203.327V5.1999H204.582V6.68839H205.915V7.82754H204.582V9.72611C204.582 10.4704 204.892 10.8045 205.496 10.8045H205.992V10.7893Z" fill="white"/>
<path d="M211.371 8.89074V11.9285H210.115V8.89074C210.115 8.07055 209.681 7.69084 209.061 7.69084C208.441 7.69084 207.976 8.02499 207.93 8.72366V11.9133H206.69V4H207.93V6.97697C208.302 6.68839 208.798 6.55169 209.34 6.55169C210.549 6.55169 211.34 7.23518 211.34 8.89074H211.371Z" fill="white"/>
<path d="M216.888 8.52621V9.68055H213.525V9.83244C213.525 10.6678 213.928 11.0475 214.641 11.0475C215.183 11.0475 215.633 10.7741 215.633 10.3337V10.2577H216.888C216.888 11.3969 215.989 12.0652 214.657 12.0652C213.138 12.0652 212.301 11.1538 212.301 9.78687V8.78442C212.301 7.41744 213.138 6.5365 214.626 6.5365C215.989 6.5365 216.904 7.37188 216.904 8.51102L216.888 8.52621ZM215.617 8.73885V8.5414C215.617 7.88829 215.292 7.56933 214.626 7.56933C213.882 7.56933 213.525 7.97942 213.525 8.73885H215.617Z" fill="white"/>
<path d="M220.004 9.84762V8.76923C220.004 7.40225 220.841 6.55169 222.329 6.55169C223.708 6.55169 224.592 7.38707 224.592 8.6781V8.79961H223.336V8.64772C223.336 8.02499 222.964 7.67565 222.329 7.67565C221.6 7.67565 221.259 8.07055 221.259 8.8148V9.80206C221.259 10.5463 221.6 10.9412 222.329 10.9412C222.949 10.9412 223.336 10.5919 223.336 9.96913V9.81725H224.592V9.93876C224.592 11.2298 223.708 12.0652 222.329 12.0652C220.856 12.0652 220.004 11.2146 220.004 9.84762Z" fill="white"/>
<path d="M226.823 4V11.9285H225.568V4H226.823Z" fill="white"/>
<path d="M227.986 4.71387H229.272V6.02009H227.986V4.71387ZM228.001 6.68839H229.257V11.9133H228.001V6.68839Z" fill="white"/>
<path d="M235.085 8.89074V11.9285H233.829V8.87555C233.829 8.07055 233.395 7.69084 232.775 7.69084C232.202 7.69084 231.69 8.02499 231.659 8.72366V11.9285H230.419V6.70358H231.225L231.458 7.15924C231.861 6.76433 232.434 6.56688 233.07 6.56688C234.294 6.56688 235.085 7.25037 235.085 8.90593V8.89074Z" fill="white"/>
<path d="M236.185 4.71387H237.471V6.02009H236.185V4.71387ZM236.201 6.68839H237.456V11.9133H236.201V6.68839Z" fill="white"/>
<path d="M238.432 9.84762V8.76923C238.432 7.40225 239.269 6.55169 240.757 6.55169C242.137 6.55169 243.02 7.38707 243.02 8.6781V8.79961H241.765V8.64772C241.765 8.02499 241.393 7.67565 240.757 7.67565C240.029 7.67565 239.688 8.07055 239.688 8.8148V9.80206C239.688 10.5463 240.029 10.9412 240.757 10.9412C241.377 10.9412 241.765 10.5919 241.765 9.96913V9.81725H243.02V9.93876C243.02 11.2298 242.137 12.0652 240.757 12.0652C239.285 12.0652 238.432 11.2146 238.432 9.84762Z" fill="white"/>
<path d="M248.507 6.70358V11.9285H247.67L247.453 11.5184C247.066 11.8981 246.508 12.0804 245.857 12.0804C244.57 12.0804 243.78 11.4272 243.78 9.878V8.76923C243.78 7.21999 244.57 6.56688 245.857 6.56688C246.508 6.56688 247.066 6.74914 247.453 7.12886L247.67 6.71877H248.507V6.70358ZM247.252 8.61734C247.174 7.99461 246.756 7.70603 246.136 7.70603C245.438 7.70603 245.035 8.05537 245.035 8.82999V9.81725C245.035 10.5919 245.438 10.9412 246.136 10.9412C246.756 10.9412 247.174 10.6374 247.252 10.0299V8.61734Z" fill="white"/>
<path d="M250.925 4V11.9285H249.669V4H250.925Z" fill="white"/>
<path d="M253.358 4V11.9285H252.103V4H253.358Z" fill="white"/>
<path d="M259 6.70358V12.4297C259 13.5688 258.256 14.4498 256.706 14.4498C255.156 14.4498 254.536 13.6296 254.49 12.6879H255.745C255.792 13.0828 256.148 13.3106 256.691 13.3106C257.295 13.3106 257.745 13.0069 257.745 12.3841V11.7006C257.404 11.9588 256.954 12.0804 256.474 12.0804C255.265 12.0804 254.49 11.3969 254.49 9.75649V6.70358H255.745V9.7413C255.745 10.5463 256.086 10.926 256.737 10.926C257.28 10.926 257.729 10.5919 257.76 9.89319V6.70358H259.015H259Z" fill="white"/>
<path d="M163.447 21.072V22.2112H162.687C161.432 22.2112 160.781 21.5732 160.781 20.2518V18.1254H160.068V16.9863H160.781V15.4978H162.036V16.9863H163.369V18.1254H162.036V20.024C162.036 20.7683 162.346 21.1024 162.951 21.1024H163.447V21.072Z" fill="white"/>
<path d="M168.639 18.8089V19.9633H165.276V20.1151C165.276 20.9505 165.679 21.3302 166.392 21.3302C166.934 21.3302 167.384 21.0568 167.384 20.6164V20.5404H168.639C168.639 21.6796 167.74 22.3479 166.407 22.3479C164.888 22.3479 164.051 21.4366 164.051 20.0696V19.0671C164.051 17.7001 164.888 16.8192 166.376 16.8192C167.74 16.8192 168.655 17.6546 168.655 18.7937L168.639 18.8089ZM167.368 19.0216V18.8241C167.368 18.171 167.043 17.852 166.376 17.852C165.632 17.852 165.291 18.2621 165.276 19.0216H167.368Z" fill="white"/>
<path d="M169.352 20.586V20.4797H170.592V20.586C170.592 21.0113 170.995 21.2695 171.599 21.2695C172.111 21.2695 172.467 21.072 172.467 20.7379C172.467 19.781 169.445 20.4189 169.445 18.5203C169.445 17.5027 170.282 16.8344 171.522 16.8344C172.762 16.8344 173.614 17.5483 173.614 18.5355V18.6418H172.374V18.5355C172.374 18.1406 172.033 17.8976 171.506 17.8976C170.98 17.8976 170.654 18.1406 170.654 18.4292C170.654 19.295 173.692 18.7026 173.692 20.6467C173.692 21.7859 172.669 22.3327 171.522 22.3327C170.174 22.3327 169.337 21.6188 169.337 20.5708L169.352 20.586Z" fill="white"/>
<path d="M177.381 21.072V22.2112H176.621C175.366 22.2112 174.715 21.5732 174.715 20.2518V18.1254H174.002V16.9863H174.715V15.4978H175.97V16.9863H177.303V18.1254H175.97V20.024C175.97 20.7683 176.28 21.1024 176.885 21.1024H177.381V21.072Z" fill="white"/>
<path d="M182.573 18.8089V19.9633H179.21V20.1151C179.21 20.9505 179.613 21.3302 180.326 21.3302C180.868 21.3302 181.318 21.0568 181.318 20.6164V20.5404H182.573C182.573 21.6796 181.674 22.3479 180.341 22.3479C178.822 22.3479 177.985 21.4366 177.985 20.0696V19.0671C177.985 17.7001 178.822 16.8192 180.31 16.8192C181.674 16.8192 182.588 17.6546 182.588 18.7937L182.573 18.8089ZM181.302 19.0216V18.8241C181.302 18.171 180.977 17.852 180.31 17.852C179.566 17.852 179.21 18.2621 179.21 19.0216H181.302Z" fill="white"/>
<path d="M188.137 14.2827V22.2112H187.3L187.083 21.8011C186.696 22.1808 186.138 22.3631 185.502 22.3631C184.2 22.3631 183.41 21.7099 183.41 20.1607V19.0519C183.41 17.5027 184.2 16.8496 185.502 16.8496C186.045 16.8496 186.51 16.9711 186.882 17.2445V14.2979H188.137V14.2827ZM186.882 18.9001C186.804 18.2773 186.386 17.9887 185.766 17.9887C185.068 17.9887 184.665 18.3381 184.665 19.1127V20.1151C184.665 20.8746 185.068 21.2239 185.766 21.2239C186.386 21.2239 186.804 20.9201 186.882 20.3126V18.9001Z" fill="white"/>
<path d="M197.39 17.2293V19.8873C197.39 21.2999 196.336 22.196 194.569 22.196H191.764V14.9206H194.554C196.336 14.9206 197.39 15.8168 197.39 17.2293ZM196.104 17.3052C196.104 16.5458 195.608 16.0902 194.647 16.0902H193.051V21.0265H194.631C195.592 21.0265 196.088 20.5708 196.088 19.8114V17.3052H196.104Z" fill="white"/>
<path d="M203.823 14.9206V22.2112H202.598L199.684 17.2749V22.2112H198.475V14.9206H199.684L202.598 19.8873V14.9206H203.823Z" fill="white"/>
<path d="M206.318 16.0902V18.2925H209.356V19.462H206.318V22.196H205.031V14.9206H209.712V16.0902H206.318Z" fill="white"/>
<path d="M210.379 18.8241H212.967V19.9177H210.379V18.8241Z" fill="white"/>
<path d="M217.663 21.0265V22.196H213.572V21.0265H214.967V16.0902H213.572V14.9206H216.253V21.0265H217.663Z" fill="white"/>
<path d="M218.376 20.024V17.1078C218.376 15.6952 219.415 14.7687 221.104 14.7687C222.794 14.7687 223.848 15.6801 223.848 17.1078V20.024C223.848 21.4517 222.809 22.3479 221.12 22.3479C219.43 22.3479 218.376 21.4366 218.376 20.024ZM222.561 19.9481V17.1837C222.561 16.4091 222.081 15.9535 221.12 15.9535C220.159 15.9535 219.663 16.4091 219.663 17.1837V19.9481C219.663 20.7075 220.143 21.1783 221.104 21.1783C222.065 21.1783 222.561 20.7227 222.561 19.9481Z" fill="white"/>
<path d="M227.226 15.5282V16.1661C227.226 16.8192 226.668 17.2445 225.909 17.2445C225.15 17.2445 224.592 16.8192 224.592 16.1661V15.5282C224.592 14.8599 225.15 14.4346 225.909 14.4346C226.668 14.4346 227.226 14.8599 227.226 15.5282ZM226.916 15.5282C226.916 15.0118 226.498 14.708 225.909 14.708C225.32 14.708 224.902 15.0118 224.902 15.5282V16.1661C224.902 16.6825 225.32 16.9863 225.909 16.9863C226.498 16.9863 226.916 16.6825 226.916 16.1661V15.5282ZM226.389 15.9079L226.668 16.5914H226.281L226.018 15.9838H225.615V16.5914H225.258V14.9966H226.018C226.405 14.9966 226.637 15.1636 226.637 15.4522V15.513C226.637 15.6952 226.544 15.8319 226.389 15.9079ZM225.615 15.6497H226.033C226.188 15.6497 226.265 15.6193 226.265 15.5282V15.4674C226.265 15.3763 226.172 15.3307 226.033 15.3307H225.615V15.6497Z" fill="white"/>
<path d="M160.61 25.2793H161.897V26.5855H160.61V25.2793ZM160.626 27.2538H161.881V32.4787H160.626V27.2538Z" fill="white"/>
<path d="M167.725 29.441V32.4787H166.469V29.4258C166.469 28.6208 166.035 28.2411 165.415 28.2411C164.842 28.2411 164.33 28.5752 164.299 29.2739V32.4787H163.059V27.2538H163.865L164.098 27.7095C164.501 27.3146 165.074 27.1171 165.71 27.1171C166.934 27.1171 167.725 27.8006 167.725 29.4562V29.441Z" fill="white"/>
<path d="M173.351 27.2538V32.9799C173.351 34.1191 172.591 35 171.011 35C169.43 35 168.779 34.1798 168.717 33.2381H169.972C170.019 33.633 170.406 33.8609 170.995 33.8609C171.63 33.8609 172.095 33.5571 172.095 32.9343V32.2357C171.723 32.5091 171.243 32.6306 170.701 32.6306C169.414 32.6306 168.624 31.9775 168.624 30.4282V29.3195C168.624 27.7702 169.414 27.1171 170.701 27.1171C171.352 27.1171 171.909 27.2994 172.297 27.6791L172.514 27.269H173.351V27.2538ZM172.095 29.1676C172.018 28.5448 171.599 28.2562 170.98 28.2562C170.282 28.2562 169.879 28.6056 169.879 29.3802V30.3827C169.879 31.1421 170.282 31.4914 170.98 31.4914C171.599 31.4914 172.018 31.1877 172.095 30.5801V29.1676Z" fill="white"/>
<path d="M177.458 28.2562C177.303 28.2107 177.133 28.1803 176.962 28.1803C176.327 28.1803 175.753 28.5448 175.753 29.3346V32.4787H174.513V27.2538H175.35L175.598 27.7246C176.017 27.3449 176.606 27.1475 177.195 27.1475C177.288 27.1475 177.381 27.1475 177.458 27.1627V28.2562Z" fill="white"/>
<path d="M182.526 29.0916V30.246H179.163V30.3978C179.163 31.2332 179.566 31.6129 180.279 31.6129C180.822 31.6129 181.271 31.3395 181.271 30.8991V30.8231H182.526C182.526 31.9623 181.628 32.6306 180.295 32.6306C178.776 32.6306 177.939 31.7193 177.939 30.3523V29.3498C177.939 27.9829 178.776 27.1019 180.264 27.1019C181.628 27.1019 182.542 27.9373 182.542 29.0764L182.526 29.0916ZM181.256 29.3043V29.1068C181.256 28.4537 180.93 28.1347 180.264 28.1347C179.52 28.1347 179.179 28.5448 179.163 29.3043H181.256Z" fill="white"/>
<path d="M188.013 24.5654V32.4939H187.176L186.959 32.0838C186.572 32.4635 186.014 32.6458 185.378 32.6458C184.076 32.6458 183.27 31.9927 183.27 30.4434V29.3346C183.27 27.7854 184.076 27.1323 185.378 27.1323C185.921 27.1323 186.386 27.2538 186.758 27.5272V24.5806H188.013V24.5654ZM186.758 29.1828C186.68 28.56 186.262 28.2714 185.626 28.2714C184.929 28.2714 184.526 28.6208 184.526 29.3954V30.3978C184.526 31.1573 184.929 31.5066 185.626 31.5066C186.246 31.5066 186.665 31.2028 186.758 30.5953V29.1828Z" fill="white"/>
<path d="M189.176 25.2793H190.462V26.5855H189.176V25.2793ZM189.191 27.2538H190.447V32.4787H189.191V27.2538Z" fill="white"/>
<path d="M196.026 29.0916V30.246H192.663V30.3978C192.663 31.2332 193.066 31.6129 193.779 31.6129C194.321 31.6129 194.771 31.3395 194.771 30.8991V30.8231H196.026C196.026 31.9623 195.127 32.6306 193.794 32.6306C192.276 32.6306 191.439 31.7193 191.439 30.3523V29.3498C191.439 27.9829 192.276 27.1019 193.763 27.1019C195.127 27.1019 196.042 27.9373 196.042 29.0764L196.026 29.0916ZM194.755 29.3043V29.1068C194.755 28.4537 194.43 28.1347 193.763 28.1347C193.02 28.1347 192.679 28.5448 192.663 29.3043H194.755Z" fill="white"/>
<path d="M201.653 29.441V32.4787H200.397V29.4258C200.397 28.6208 199.963 28.2411 199.343 28.2411C198.77 28.2411 198.258 28.5752 198.227 29.2739V32.4787H196.987V27.2538H197.793L198.026 27.7095C198.429 27.3146 199.002 27.1171 199.638 27.1171C200.862 27.1171 201.653 27.8006 201.653 29.4562V29.441Z" fill="white"/>
<path d="M205.574 31.3547V32.4939H204.814C203.559 32.4939 202.908 31.856 202.908 30.5345V28.4081H202.195V27.269H202.908V25.7805H204.164V27.269H205.496V28.4081H204.164V30.3067C204.164 31.051 204.473 31.3851 205.078 31.3851H205.574V31.3547Z" fill="white"/>
</g>
<path d="M283 5.14216V28.6931H286.948V17.5289H293.256L292.891 16.4106H286.948V7.66784H295.955V5.14216H283Z" fill="white"/>
<path d="M310.244 12.2596C310.069 12.577 308.764 16.8513 306.334 25.087H306.253L302.14 14.8611C301.539 13.1267 301.166 12.2596 301.01 12.2596H297.109L297.043 12.3069L304.471 31.0718L303.01 35.91L303.142 36H304.409L311.573 12.3543L311.455 12.2596H310.244ZM332.122 15.7756L332.254 15.0932C333.082 13.8233 334.528 13.0983 336.037 13.1978C336.647 13.212 337.252 13.321 337.829 13.52C339.29 13.9607 340.018 14.9795 340.018 16.5764V16.7138C340.056 17.5715 339.966 18.434 339.753 19.268C339.375 20.4384 338.661 21.4714 337.696 22.2343C336.221 23.4048 334.405 24.0634 332.524 24.1061H332.126V15.7756H332.122ZM361.262 12.2596L355.158 18.6898H355.091C352.042 14.6715 350.359 12.5249 350.051 12.2501H345.673L345.607 12.2975L352.571 21.3008C351.063 22.9688 349.02 25.1154 346.439 27.7406H335.564L335.233 27.6932L335.167 27.7406C334.5 27.5795 333.852 27.3331 333.242 27.0109C332.49 26.3996 332.112 25.793 332.117 25.1865V25.087L332.448 25.0396H332.727C335.238 24.9875 337.706 24.3809 339.956 23.2579C342.656 21.5946 344.004 19.8745 344.004 18.0975V17.4673C344.004 16.4769 343.474 15.4723 342.415 14.4535C340.751 13.0367 338.632 12.2596 336.448 12.2643H336.382L336.316 12.3117L336.249 12.2643H335.654C334.145 12.2785 332.661 12.6386 331.308 13.3115C329.143 14.5293 328.06 15.913 328.06 17.4673V23.4C328.107 24.2577 328.41 25.0822 328.921 25.7693C330.67 27.6885 333.162 28.7547 335.753 28.6931H347.191L353.29 22.3007L356.207 25.9541C357.389 27.5842 358.118 28.4988 358.392 28.6931H362.77L362.836 28.6457L355.895 19.6376C359.919 15.3444 362.241 12.9087 362.86 12.3354L362.728 12.2453L361.262 12.2596ZM376.175 27.4231C374.761 27.0061 374.052 26.0015 374.052 24.4094V22.04C374.038 21.4809 374.127 20.9217 374.317 20.3958C375.035 19.2395 376.496 18.6614 378.695 18.6614H381.943V22.1775L382.009 27.7453H377.565L377.234 27.698L377.168 27.7453L376.175 27.4231ZM378.695 12.2596H374.335L374.269 12.3069L374.203 12.2596L374.071 12.3496V13.1267L374.203 13.2168H378.25C378.539 13.2073 378.832 13.2357 379.111 13.3068C381.002 13.7949 381.948 14.6146 381.948 15.7709V17.6663H381.475L381.428 17.7421L381.362 17.6995H380.955L380.889 17.7421L380.823 17.6995H380.425L380.359 17.7421L380.298 17.6995H380.161L380.094 17.7421L380.009 17.6947H379.612L379.536 17.7421L379.47 17.6995H379.338L379.272 17.7421L379.206 17.6995H379.073L379.007 17.7421V17.6947L378.676 17.7374H377.73C376.335 17.799 375.607 17.9032 375.541 18.0549L375.475 18.0075C374.643 18.1781 373.844 18.4908 373.111 18.922C372.558 19.2016 372.042 19.5523 371.584 19.974C370.581 20.9786 370.08 21.9737 370.08 22.9546V23.3621C370.123 24.3667 370.524 25.3239 371.21 26.0584C372.908 27.7785 375.234 28.731 377.645 28.6978H385.868L386 28.6078V17.4673C386 16.2732 385.272 15.1027 383.811 13.9512C382.78 13.2641 381.631 12.7666 380.425 12.4917C380.425 12.4917 379.234 12.2927 378.837 12.2643H378.695V12.2596ZM364.605 12.2074L364.472 12.2975V28.603L364.605 28.6931H368.321L368.453 28.603V12.3069L368.321 12.2169H364.605V12.2074ZM319.757 5L315.842 7.64888L315.776 12.1695V12.2169H313.346L313.213 12.3069V13.0841L313.346 13.1741H315.8V22.3054C315.8 23.926 316.154 25.1438 316.859 25.9589C318.585 27.7264 320.958 28.7168 323.426 28.6978H326.344L326.476 28.6078V27.7832L326.41 27.7359L324.75 27.7832C322.859 27.7832 321.578 27.48 320.906 26.8687C320.197 26.4375 319.842 25.5845 319.842 24.3146V13.1741H326.344L326.476 13.0841V12.3069L326.344 12.2169H319.824V5H319.757Z" fill="white"/>
<path d="M368.189 6.54953H364.591C364.371 6.54953 364.193 6.72774 364.193 6.94757V10.5537C364.193 10.7735 364.371 10.9517 364.591 10.9517H368.189C368.408 10.9517 368.586 10.7735 368.586 10.5537V6.94757C368.586 6.72774 368.408 6.54953 368.189 6.54953Z" fill="#5CB694"/>
<path d="M368.179 8.31229H366.359C366.134 8.31229 365.952 8.49474 365.952 8.71981V10.5442C365.952 10.7692 366.134 10.9517 366.359 10.9517H368.179C368.404 10.9517 368.586 10.7692 368.586 10.5442V8.71981C368.586 8.49474 368.404 8.31229 368.179 8.31229Z" fill="#3A72B0"/>
<defs>
<linearGradient id="paint0_linear_550_280" x1="112.339" y1="19.2287" x2="181.814" y2="19.0943" gradientUnits="userSpaceOnUse">
<stop stop-color="#6B3B0F"/>
<stop offset="0.2" stop-color="#CDA246"/>
<stop offset="0.34" stop-color="#F5D37C"/>
<stop offset="0.47" stop-color="#FBF7CF"/>
<stop offset="0.64" stop-color="#FFDD7A"/>
<stop offset="0.8" stop-color="#88581D"/>
<stop offset="1" stop-color="#EEC468"/>
</linearGradient>
<linearGradient id="paint1_linear_550_280" x1="121.651" y1="19.1669" x2="173.058" y2="19.0451" gradientUnits="userSpaceOnUse">
<stop stop-color="#6B3B0F"/>
<stop offset="0.2" stop-color="#CDA246"/>
<stop offset="0.34" stop-color="#F5D37C"/>
<stop offset="0.47" stop-color="#FBF7CF"/>
<stop offset="0.64" stop-color="#FFDD7A"/>
<stop offset="0.8" stop-color="#88581D"/>
<stop offset="1" stop-color="#EEC468"/>
</linearGradient>
<linearGradient id="paint2_linear_550_280" x1="126.094" y1="19.1583" x2="166.128" y2="19.0634" gradientUnits="userSpaceOnUse">
<stop stop-color="#6B3B0F"/>
<stop offset="0.2" stop-color="#CDA246"/>
<stop offset="0.34" stop-color="#F5D37C"/>
<stop offset="0.47" stop-color="#FBF7CF"/>
<stop offset="0.64" stop-color="#FFDD7A"/>
<stop offset="0.8" stop-color="#88581D"/>
<stop offset="1" stop-color="#EEC468"/>
</linearGradient>
<clipPath id="clip0_550_280">
<rect width="131" height="31" fill="white" transform="translate(128 4)"/>
</clipPath>
</defs>
</svg>
