<svg width="175" height="23" viewBox="0 0 175 23" fill="none" xmlns="http://www.w3.org/2000/svg">
<path d="M0.60791 17.7898H3.64239V12.8114H6.93765C10.9678 12.8114 12.7695 10.5829 12.7695 7.54846C12.7695 4.51398 10.9678 2.28553 6.93765 2.28553H0.60791V17.7898ZM3.64239 10.014V5.10665H6.98506C9.00015 5.10665 9.68765 6.14975 9.68765 7.54846C9.68765 8.97087 9.00015 10.014 6.98506 10.014H3.64239Z" fill="white"/>
<path d="M14.4192 17.7898H17.2403V10.986C17.2403 9.0894 18.1886 8.40191 19.5636 8.40191C20.9386 8.40191 21.8869 9.0894 21.8869 10.986V11.1045H24.6843V11.0334C24.6843 7.45363 22.6218 5.77044 19.5636 5.77044C16.5054 5.77044 14.4192 7.45363 14.4192 10.986V17.7898Z" fill="white"/>
<path d="M32.0351 18.098C35.7334 18.098 38.3411 15.4903 38.3411 11.9342C38.3411 8.3782 35.7334 5.77044 32.0351 5.77044C28.3368 5.77044 25.7291 8.3782 25.7291 11.9342C25.7291 15.4903 28.3368 18.098 32.0351 18.098ZM32.0351 15.4666C29.9726 15.4666 28.5739 13.9967 28.5739 11.9342C28.5739 9.87173 29.9726 8.40191 32.0351 8.40191C34.0976 8.40191 35.4726 9.87173 35.4726 11.9342C35.4726 13.9967 34.0976 15.4666 32.0351 15.4666Z" fill="white"/>
<path d="M40.5896 17.7898H43.4107V0.95794H40.5896V17.7898Z" fill="white"/>
<path d="M51.9683 18.098C54.742 18.098 56.8757 16.6519 57.7528 14.4235H54.742C54.1494 15.1821 53.2248 15.5377 51.9683 15.5377C50.3089 15.5377 49.005 14.6368 48.6257 12.9299H58.227V11.9342C58.227 8.3782 55.6666 5.77044 51.9683 5.77044C48.2701 5.77044 45.6623 8.3782 45.6623 11.9342C45.6623 15.4903 48.2701 18.098 51.9683 18.098ZM48.6968 10.6778C49.1472 9.13682 50.38 8.33078 51.9683 8.33078C53.5093 8.33078 54.7895 9.11311 55.2399 10.6778H48.6968Z" fill="white"/>
<path d="M60.0735 22.792H62.8946V16.0829C63.7244 17.3868 65.1231 18.098 66.8063 18.098C69.6511 18.098 72.6382 16.0592 72.6382 12.0528C72.6382 8.33078 70.0304 5.77044 66.3084 5.77044C62.6338 5.77044 60.0735 8.23596 60.0735 12.0291V22.792ZM66.3321 15.4666C64.2696 15.4666 62.8946 13.9967 62.8946 11.9342C62.8946 9.87173 64.2696 8.40191 66.3321 8.40191C68.3946 8.40191 69.7933 9.87173 69.7933 11.9342C69.7933 13.9967 68.3946 15.4666 66.3321 15.4666Z" fill="white"/>
<path d="M79.2855 18.098C82.1304 18.098 84.0743 16.5334 84.0743 13.2855V12.9773H81.2532V13.2855C81.2532 14.8739 80.4472 15.4666 79.2855 15.4666C78.1239 15.4666 77.3179 14.8502 77.3179 13.2855V8.63897H83.3631V6.07863H77.3179V1.92992H74.4967V13.2855C74.4967 16.5334 76.4407 18.098 79.2855 18.098Z" fill="white"/>
<path d="M87.7126 4.56139C88.8031 4.56139 89.5854 3.77906 89.5854 2.68854C89.5854 1.59803 88.8031 0.791992 87.7126 0.791992C86.6221 0.791992 85.8397 1.59803 85.8397 2.68854C85.8397 3.77906 86.6221 4.56139 87.7126 4.56139ZM86.2902 17.7898H89.1113V6.07863H86.2902V17.7898Z" fill="white"/>
<path d="M91.837 17.7898H94.6582V11.6972C94.6582 9.46872 95.8435 8.40191 97.6215 8.40191C99.3995 8.40191 100.585 9.46872 100.585 11.6972V17.7898H103.406V11.6972C103.406 7.76182 101.083 5.77044 97.6215 5.77044C94.1603 5.77044 91.837 7.78553 91.837 11.6972V17.7898Z" fill="white"/>
<path d="M112.452 17.7898H115.486V11.2704H122.314V8.52044H115.486V5.10665H123.689V2.28553H112.452V17.7898Z" fill="white"/>
<path d="M131.053 18.098C134.751 18.098 137.359 15.4903 137.359 11.9342C137.359 8.3782 134.751 5.77044 131.053 5.77044C127.355 5.77044 124.747 8.3782 124.747 11.9342C124.747 15.4903 127.355 18.098 131.053 18.098ZM131.053 15.4666C128.991 15.4666 127.592 13.9967 127.592 11.9342C127.592 9.87173 128.991 8.40191 131.053 8.40191C133.116 8.40191 134.491 9.87173 134.491 11.9342C134.491 13.9967 133.116 15.4666 131.053 15.4666Z" fill="white"/>
<path d="M139.205 17.7898H142.026V10.986C142.026 9.0894 142.974 8.40191 144.349 8.40191C145.724 8.40191 146.672 9.0894 146.672 10.986V11.1045H149.47V11.0334C149.47 7.45363 147.407 5.77044 144.349 5.77044C141.291 5.77044 139.205 7.45363 139.205 10.986V17.7898Z" fill="white"/>
<path d="M155.777 18.098C158.622 18.098 160.566 16.5334 160.566 13.2855V12.9773H157.745V13.2855C157.745 14.8739 156.939 15.4666 155.777 15.4666C154.616 15.4666 153.81 14.8502 153.81 13.2855V8.63897H159.855V6.07863H153.81V1.92992H150.989V13.2855C150.989 16.5334 152.932 18.098 155.777 18.098Z" fill="white"/>
<path d="M168.211 18.098C170.985 18.098 173.118 16.6519 173.995 14.4235H170.985C170.392 15.1821 169.467 15.5377 168.211 15.5377C166.551 15.5377 165.247 14.6368 164.868 12.9299H174.469V11.9342C174.469 8.3782 171.909 5.77044 168.211 5.77044C164.513 5.77044 161.905 8.3782 161.905 11.9342C161.905 15.4903 164.513 18.098 168.211 18.098ZM164.939 10.6778C165.39 9.13682 166.622 8.33078 168.211 8.33078C169.752 8.33078 171.032 9.11311 171.482 10.6778H164.939Z" fill="white"/>
</svg>
