<svg width="118" height="16" viewBox="0 0 118 16" fill="none" xmlns="http://www.w3.org/2000/svg">
<path d="M0 12.048H2.048V8.688H4.272C6.992 8.688 8.208 7.184 8.208 5.136C8.208 3.088 6.992 1.584 4.272 1.584H0V12.048ZM2.048 6.8V3.488H4.304C5.664 3.488 6.128 4.192 6.128 5.136C6.128 6.096 5.664 6.8 4.304 6.8H2.048Z" fill="#1D1D1F"/>
<path d="M9.32137 12.048H11.2254V7.456C11.2254 6.176 11.8654 5.712 12.7934 5.712C13.7214 5.712 14.3614 6.176 14.3614 7.456V7.536H16.2494V7.488C16.2494 5.072 14.8574 3.936 12.7934 3.936C10.7294 3.936 9.32137 5.072 9.32137 7.456V12.048Z" fill="#1D1D1F"/>
<path d="M21.2105 12.256C23.7065 12.256 25.4665 10.496 25.4665 8.096C25.4665 5.696 23.7065 3.936 21.2105 3.936C18.7145 3.936 16.9545 5.696 16.9545 8.096C16.9545 10.496 18.7145 12.256 21.2105 12.256ZM21.2105 10.48C19.8185 10.48 18.8745 9.488 18.8745 8.096C18.8745 6.704 19.8185 5.712 21.2105 5.712C22.6025 5.712 23.5305 6.704 23.5305 8.096C23.5305 9.488 22.6025 10.48 21.2105 10.48Z" fill="#1D1D1F"/>
<path d="M26.984 12.048H28.888V0.688H26.984V12.048Z" fill="#1D1D1F"/>
<path d="M34.6636 12.256C36.5356 12.256 37.9756 11.28 38.5676 9.776H36.5356C36.1356 10.288 35.5116 10.528 34.6636 10.528C33.5436 10.528 32.6636 9.92 32.4076 8.768H38.8876V8.096C38.8876 5.696 37.1596 3.936 34.6636 3.936C32.1676 3.936 30.4076 5.696 30.4076 8.096C30.4076 10.496 32.1676 12.256 34.6636 12.256ZM32.4556 7.248C32.7596 6.208 33.5916 5.664 34.6636 5.664C35.7036 5.664 36.5676 6.192 36.8716 7.248H32.4556Z" fill="#1D1D1F"/>
<path d="M40.1339 15.424H42.0379V10.896C42.5979 11.776 43.5419 12.256 44.6779 12.256C46.5979 12.256 48.6139 10.88 48.6139 8.176C48.6139 5.664 46.8539 3.936 44.3419 3.936C41.8619 3.936 40.1339 5.6 40.1339 8.16V15.424ZM44.3579 10.48C42.9659 10.48 42.0379 9.488 42.0379 8.096C42.0379 6.704 42.9659 5.712 44.3579 5.712C45.7499 5.712 46.6939 6.704 46.6939 8.096C46.6939 9.488 45.7499 10.48 44.3579 10.48Z" fill="#1D1D1F"/>
<path d="M53.1003 12.256C55.0202 12.256 56.3322 11.2 56.3322 9.008V8.8H54.4282V9.008C54.4282 10.08 53.8843 10.48 53.1003 10.48C52.3162 10.48 51.7723 10.064 51.7723 9.008V5.872H55.8522V4.144H51.7723V1.344H49.8683V9.008C49.8683 11.2 51.1803 12.256 53.1003 12.256Z" fill="#1D1D1F"/>
<path d="M58.7878 3.12C59.5238 3.12 60.0518 2.592 60.0518 1.856C60.0518 1.12 59.5238 0.576 58.7878 0.576C58.0518 0.576 57.5238 1.12 57.5238 1.856C57.5238 2.592 58.0518 3.12 58.7878 3.12ZM57.8278 12.048H59.7318V4.144H57.8278V12.048Z" fill="#1D1D1F"/>
<path d="M61.5714 12.048H63.4754V7.936C63.4754 6.432 64.2754 5.712 65.4754 5.712C66.6754 5.712 67.4754 6.432 67.4754 7.936V12.048H69.3794V7.936C69.3794 5.28 67.8114 3.936 65.4754 3.936C63.1394 3.936 61.5714 5.296 61.5714 7.936V12.048Z" fill="#1D1D1F"/>
<path d="M75.4844 12.048H77.5324V7.648H82.1404V5.792H77.5324V3.488H83.0684V1.584H75.4844V12.048Z" fill="#1D1D1F"/>
<path d="M88.0386 12.256C90.5346 12.256 92.2946 10.496 92.2946 8.096C92.2946 5.696 90.5346 3.936 88.0386 3.936C85.5426 3.936 83.7826 5.696 83.7826 8.096C83.7826 10.496 85.5426 12.256 88.0386 12.256ZM88.0386 10.48C86.6466 10.48 85.7026 9.488 85.7026 8.096C85.7026 6.704 86.6466 5.712 88.0386 5.712C89.4306 5.712 90.3586 6.704 90.3586 8.096C90.3586 9.488 89.4306 10.48 88.0386 10.48Z" fill="#1D1D1F"/>
<path d="M93.5401 12.048H95.4441V7.456C95.4441 6.176 96.0841 5.712 97.0121 5.712C97.9401 5.712 98.5801 6.176 98.5801 7.456V7.536H100.468V7.488C100.468 5.072 99.0761 3.936 97.0121 3.936C94.9481 3.936 93.5401 5.072 93.5401 7.456V12.048Z" fill="#1D1D1F"/>
<path d="M104.725 12.256C106.645 12.256 107.957 11.2 107.957 9.008V8.8H106.053V9.008C106.053 10.08 105.509 10.48 104.725 10.48C103.941 10.48 103.397 10.064 103.397 9.008V5.872H107.477V4.144H103.397V1.344H101.493V9.008C101.493 11.2 102.805 12.256 104.725 12.256Z" fill="#1D1D1F"/>
<path d="M113.117 12.256C114.989 12.256 116.429 11.28 117.021 9.776H114.989C114.589 10.288 113.965 10.528 113.117 10.528C111.997 10.528 111.117 9.92 110.861 8.768H117.341V8.096C117.341 5.696 115.613 3.936 113.117 3.936C110.621 3.936 108.861 5.696 108.861 8.096C108.861 10.496 110.621 12.256 113.117 12.256ZM110.909 7.248C111.213 6.208 112.045 5.664 113.117 5.664C114.157 5.664 115.021 6.192 115.325 7.248H110.909Z" fill="#1D1D1F"/>
</svg>
