<svg width="30" height="30" viewBox="0 0 30 30" fill="none" xmlns="http://www.w3.org/2000/svg">
<path fill-rule="evenodd" clip-rule="evenodd" d="M15 0C6.72 0 0 6.72 0 15C0 23.28 6.41 29.69 14.43 29.99C13.62 29.96 12.82 29.86 12.05 29.71V18.29H9.6V14.21H12.05V11.76C12.05 8.43 13.43 6.45 17.36 6.45H20.63V10.53H18.59C17.06 10.53 16.96 11.1 16.96 12.16V14.2H20.65L20.22 18.28H16.95V29.87C16.55 29.92 16.14 29.96 15.74 29.98C23.68 29.6 30 23.03 30 15C30 6.97 23.28 0 15 0Z" fill="white"/>
<path fill-rule="evenodd" clip-rule="evenodd" d="M15 30C15.08 30 15.15 30 15.22 30C15.15 30 15.07 30 15 30Z" fill="white"/>
<path fill-rule="evenodd" clip-rule="evenodd" d="M15.72 29.98C15.65 29.98 15.59 29.98 15.52 29.98C15.59 29.98 15.66 29.98 15.72 29.98Z" fill="white"/>
<path fill-rule="evenodd" clip-rule="evenodd" d="M14.68 30C14.68 30 14.77 30 14.81 30C14.77 30 14.72 30 14.68 30Z" fill="white"/>
</svg>
