<svg width="12" height="12" viewBox="0 0 12 12" fill="none" xmlns="http://www.w3.org/2000/svg">
<path d="M10.1744 1.696C10.1744 1.696 10.1632 1.68 10.1552 1.672C10.136 1.6512 10.1152 1.6336 10.0928 1.6192C9.0192 0.616 7.5808 0 6 0C4.4192 0 2.9808 0.616 1.9072 1.6176C1.8848 1.6336 1.864 1.6512 1.8448 1.6704C1.8368 1.6784 1.832 1.6864 1.8256 1.6944C0.7008 2.7872 0 4.312 0 6C0 7.688 0.7008 9.2128 1.8256 10.304C1.832 10.312 1.8368 10.3216 1.8448 10.3296C1.864 10.3504 1.8848 10.368 1.9072 10.3824C2.9792 11.3856 4.4192 12 6 12C7.5808 12 9.0192 11.384 10.0928 10.3824C10.1152 10.3664 10.136 10.3488 10.1552 10.3296C10.1632 10.3216 10.168 10.3136 10.1744 10.304C11.2992 9.2128 12 7.6864 12 6C12 4.3136 11.2992 2.7872 10.1744 1.696ZM9.8448 9.4992C9.4976 9.208 9.1216 8.96 8.7232 8.7568C8.9056 8.0464 9.0192 7.2496 9.0464 6.4H11.184C11.0928 7.5888 10.6016 8.6672 9.8448 9.4992ZM0.8176 6.4H2.9552C2.9824 7.2496 3.096 8.0448 3.2784 8.7568C2.88 8.96 2.504 9.208 2.1568 9.4992C1.3984 8.6672 0.9088 7.5888 0.8176 6.4ZM2.1568 2.5008C2.504 2.792 2.88 3.04 3.2784 3.2432C3.096 3.9536 2.9824 4.7504 2.9552 5.6H0.8176C0.9088 4.4112 1.4 3.3328 2.1568 2.5008ZM7.7488 2.7936C7.1936 2.9904 6.6048 3.0944 6.0016 3.0944C5.3984 3.0944 4.808 2.9904 4.2544 2.7936C4.6992 1.5488 5.3712 0.8 6.0016 0.8C6.632 0.8 7.3056 1.5488 7.7488 2.7936ZM7.7968 1.12C8.3296 1.3168 8.8208 1.5984 9.256 1.9488C9.0128 2.1456 8.7536 2.3168 8.4816 2.464C8.2912 1.9456 8.0608 1.4912 7.7968 1.1184V1.12ZM3.7552 5.6C3.7808 4.8528 3.8768 4.168 4.024 3.5632C4.6512 3.7808 5.3184 3.896 6 3.896C6.6816 3.896 7.3472 3.7824 7.976 3.5632C8.1232 4.168 8.2192 4.8528 8.2448 5.6H3.7552ZM8.2448 6.4C8.2192 7.1472 8.1232 7.8336 7.976 8.4384C7.3488 8.2208 6.6816 8.1056 6 8.1056C5.3184 8.1056 4.6528 8.2192 4.024 8.4384C3.8768 7.8336 3.7808 7.1488 3.7552 6.4H8.2448ZM3.5184 2.4656C3.2464 2.3184 2.9872 2.1456 2.744 1.9504C3.1792 1.6 3.6704 1.3184 4.2032 1.1216C3.9392 1.4944 3.7072 1.9472 3.5184 2.4672V2.4656ZM3.5184 9.5344C3.7088 10.0528 3.9392 10.5072 4.2032 10.88C3.6704 10.6832 3.1792 10.4016 2.744 10.0512C2.9872 9.8544 3.2464 9.6832 3.5184 9.536V9.5344ZM4.2512 9.2064C4.8064 9.0096 5.3952 8.9056 5.9984 8.9056C6.6016 8.9056 7.192 9.0096 7.7456 9.2064C7.3008 10.4512 6.6288 11.2 5.9984 11.2C5.368 11.2 4.6944 10.4512 4.2512 9.2064ZM8.48 9.5344C8.752 9.6816 9.0112 9.8544 9.2544 10.0496C8.8192 10.4 8.328 10.6816 7.7952 10.8784C8.0592 10.5056 8.2896 10.0528 8.48 9.5328V9.5344ZM9.0448 5.6C9.0176 4.7504 8.904 3.9552 8.7216 3.2432C9.12 3.04 9.496 2.792 9.8432 2.5008C10.6016 3.3328 11.0912 4.4112 11.1824 5.6H9.0448Z" fill="#1D1D1F"/>
</svg>
