<svg width="30" height="30" viewBox="0 0 30 30" fill="none" xmlns="http://www.w3.org/2000/svg">
<path d="M15.4475 16.64C18.1975 16.64 20.4375 14.4 20.4375 11.65C20.4375 8.9 18.1975 6.66 15.4475 6.66C12.6975 6.66 10.4575 8.9 10.4575 11.65C10.4575 14.4 12.6975 16.64 15.4475 16.64ZM15.4475 7.67C17.6475 7.67 19.4375 9.46 19.4375 11.66C19.4375 13.86 17.6475 15.65 15.4475 15.65C13.2475 15.65 11.4575 13.86 11.4575 11.66C11.4575 9.46 13.2475 7.67 15.4475 7.67Z" fill="#00D6B8"/>
<path d="M25.7775 22.93L22.3875 16.82C23.4675 15.38 24.1075 13.6 24.1075 11.66C24.0975 6.88 20.2175 3 15.4475 3C10.6775 3 6.7975 6.88 6.7975 11.65C6.7975 13.58 7.4475 15.37 8.5175 16.81L5.1275 22.93C4.9575 23.24 4.9575 23.61 5.1275 23.91C5.2975 24.21 5.6175 24.4 5.9775 24.41L8.8075 24.47L10.3575 26.83C10.5475 27.11 10.8575 27.28 11.1975 27.28H11.2375C11.5875 27.27 11.9075 27.07 12.0775 26.77L15.4675 20.67L18.8575 26.77C19.0275 27.08 19.3475 27.27 19.6975 27.28H19.7375C20.0775 27.28 20.3875 27.11 20.5775 26.83L22.1275 24.47L24.9575 24.41C25.3075 24.41 25.6275 24.21 25.7975 23.91C25.9775 23.61 25.9775 23.23 25.7975 22.93H25.7775ZM15.4475 5C19.1175 5 22.0975 7.99 22.0975 11.65C22.0975 15.31 19.1175 18.3 15.4475 18.3C11.7775 18.3 8.7875 15.32 8.7875 11.65C8.7875 7.98 11.7775 5 15.4475 5ZM11.1175 24.36L10.1875 22.94C10.0075 22.67 9.7075 22.5 9.3775 22.49L7.6775 22.45L9.9575 18.34C10.9675 19.17 12.1775 19.77 13.4975 20.08L11.1175 24.36ZM21.5275 22.49C21.1975 22.49 20.8975 22.67 20.7175 22.94L19.7875 24.36L17.4075 20.08C18.7275 19.77 19.9375 19.17 20.9475 18.34L23.2275 22.45L21.5275 22.49Z" fill="#00D6B8"/>
</svg>
