<svg width="30" height="30" viewBox="0 0 30 30" fill="none" xmlns="http://www.w3.org/2000/svg">
<path d="M15 0C6.55 0 0 6.19 0 14.55C0 18.92 1.79 22.7 4.71 25.31C4.95 25.53 5.1 25.83 5.11 26.16L5.19 28.83C5.22 29.68 6.09 30.24 6.87 29.89L9.85 28.58C10.1 28.47 10.39 28.45 10.65 28.52C12.02 28.89 13.47 29.1 14.99 29.1C23.44 29.1 29.99 22.91 29.99 14.55C29.99 6.19 23.45 0 15 0ZM24.01 11.2L19.6 18.19C18.9 19.3 17.4 19.58 16.35 18.79L12.84 16.16C12.52 15.92 12.08 15.92 11.76 16.16L7.03 19.75C6.4 20.23 5.57 19.48 6 18.81L10.41 11.82C11.11 10.71 12.61 10.43 13.66 11.22L17.17 13.85C17.49 14.09 17.93 14.09 18.25 13.85L22.98 10.26C23.61 9.78 24.43 10.54 24.01 11.21V11.2Z" fill="white"/>
</svg>
