<svg width="30" height="30" viewBox="0 0 30 30" fill="none" xmlns="http://www.w3.org/2000/svg">
<path d="M1.59 17.1H1.01C0.45 17.1 0 17.55 0 18.11C0 18.67 0.45 19.12 1.01 19.12H1.59C2.15 19.12 2.6 18.67 2.6 18.11C2.6 17.55 2.15 17.1 1.59 17.1Z" fill="#00D6B8"/>
<path d="M28.37 9.74L18.15 5.09C17.89 4.97 17.59 4.97 17.32 5.09L7.1 9.74C6.74 9.9 6.51 10.26 6.51 10.65V13.96H2.58C2.19 13.96 1.87 14.41 1.87 14.97C1.87 15.53 2.19 15.98 2.58 15.98H6.51V17.11H4.42C3.96 17.11 3.59 17.56 3.59 18.12C3.59 18.68 3.96 19.13 4.42 19.13H6.51V19.94C6.51 20.33 6.74 20.69 7.1 20.85L17.32 25.5C17.45 25.56 17.59 25.59 17.73 25.59C17.87 25.59 18.01 25.56 18.14 25.5L28.36 20.85C28.72 20.69 28.95 20.33 28.95 19.94V10.65C28.95 10.26 28.72 9.9 28.36 9.74H28.37ZM17.73 7.1L25.81 10.77L22.37 12.34L14.29 8.66L17.73 7.09V7.1ZM17.73 14.44L9.65 10.77L13.08 9.21L21.16 12.88L17.73 14.44ZM8.51 19.12H12.68C13.14 19.12 13.51 18.67 13.51 18.11C13.51 17.55 13.14 17.1 12.68 17.1H8.51V15.97H9.8C10.19 15.97 10.51 15.52 10.51 14.96C10.51 14.4 10.19 13.95 9.8 13.95H8.51V12.44L16.79 16.2C16.76 16.3 16.73 16.4 16.73 16.5V23.01L8.51 19.27V19.1V19.12ZM18.73 16.52C18.73 16.41 18.7 16.31 18.67 16.22L26.95 12.46V19.31L18.73 23.05V16.52Z" fill="#00D6B8"/>
</svg>
