<svg width="30" height="30" viewBox="0 0 30 30" fill="none" xmlns="http://www.w3.org/2000/svg">
<path d="M18.5649 6H3V18.6844H18.5649V6ZM16.406 16.6117H5.15898V8.07273H16.406V16.6117Z" fill="#00D6B8"/>
<path d="M17.7253 19.9245H11.8204C11.2207 19.9245 10.741 20.3851 10.741 20.9608C10.741 21.5366 11.2207 21.9972 11.8204 21.9972H17.7253C18.3158 21.9972 18.8048 21.5366 18.8048 20.9608C18.8048 20.3851 18.3251 19.9245 17.7253 19.9245Z" fill="#00D6B8"/>
<path d="M7.19801 19.7385C5.68488 19.7385 4.45777 20.9165 4.45777 22.3692C4.45777 23.8219 5.68488 25 7.19801 25C8.71114 25 9.93825 23.8219 9.93825 22.3692C9.93825 20.9165 8.71114 19.7385 7.19801 19.7385ZM7.19801 23.2373C6.69979 23.2373 6.30305 22.8476 6.30305 22.3781C6.30305 21.9086 6.70901 21.5189 7.19801 21.5189C7.68701 21.5189 8.09297 21.9086 8.09297 22.3781C8.09297 22.8476 7.68701 23.2373 7.19801 23.2373Z" fill="#00D6B8"/>
<path d="M25.9092 10.0923H19.9766V19.2779C20.5855 18.8881 21.3236 18.6578 22.1079 18.6578C24.11 18.6578 25.7523 20.1193 25.9553 21.9883H29V15.903L25.9092 10.0834V10.0923ZM26.841 18.7907C25.7431 17.4531 24.0362 16.6028 22.1263 16.5939V12.165H24.5806L26.841 16.4079V18.7907Z" fill="#00D6B8"/>
<path d="M22.1171 19.7385C20.604 19.7385 19.3769 20.9165 19.3769 22.3692C19.3769 23.8219 20.604 25 22.1171 25C23.6302 25 24.8573 23.8219 24.8573 22.3692C24.8573 20.9165 23.6302 19.7385 22.1171 19.7385ZM22.1171 23.2373C21.6189 23.2373 21.2221 22.8476 21.2221 22.3781C21.2221 21.9086 21.6281 21.5189 22.1171 21.5189C22.6061 21.5189 23.0121 21.9086 23.0121 22.3781C23.0121 22.8476 22.6061 23.2373 22.1171 23.2373Z" fill="#00D6B8"/>
</svg>
